<?xml version="1.0" standalone="no"?><!DOCTYPE svg PUBLIC "-//W3C//DTD SVG 1.1//EN" "http://www.w3.org/Graphics/SVG/1.1/DTD/svg11.dtd"><svg t="1515649269762" class="icon" style="" viewBox="0 0 1024 1024" version="1.1" xmlns="http://www.w3.org/2000/svg" p-id="3891" xmlns:xlink="http://www.w3.org/1999/xlink" width="200" height="200"><defs><style type="text/css"></style></defs><path d="M271.365 634.425h-6c-16.5 0-30 13.5-30 30v140c0 16.5 13.5 30 30 30h6c16.5 0 30-13.5 30-30v-140c0-16.5-13.5-30-30-30z m169.087-119.683c-18.15 0-33 14.85-33 33v253.683c0 18.15 14.85 33 33 33s33-14.85 33-33V547.742c0-18.15-14.85-33-33-33z m169.943 0c-18.15 0-33 14.85-33 33v253.683c0 18.15 14.85 33 33 33s33-14.85 33-33V547.742c0-18.15-14.85-33-33-33z m172.274-26.781c-18.15 0-33 14.85-33 33v280.464c0 18.15 14.85 33 33 33s33-14.85 33-33V520.961c0-18.15-14.85-33-33-33z m48.922-258.925v-13.783c0-14.123-11.555-25.678-25.678-25.678h-145.97c-14.123 0-25.678 11.555-25.678 25.678v14.645c0 14.123 11.555 25.678 25.678 25.678h49.656l-137.67 137.67L448.5 269.817c-11.609-11.608-30.604-11.608-42.213 0l-2.053 2.053a32.908 32.908 0 0 0-4.18 3.527L201.737 473.715c-12.834 12.834-12.834 33.835 0 46.669 12.834 12.834 33.835 12.834 46.669 0l178.662-178.662L549.69 464.344c11.352 11.352 29.763 11.596 41.427 0.746a32.47 32.47 0 0 0 8.334-6.029L765.89 292.622v72.337c0 13.539 11.077 24.616 24.616 24.616h16.767c13.539 0 24.616-11.077 24.616-24.616V232.843c0-1.294-0.103-2.566-0.298-3.807z" p-id="3892"></path></svg>