<?xml version="1.0" standalone="no"?><!DOCTYPE svg PUBLIC "-//W3C//DTD SVG 1.1//EN" "http://www.w3.org/Graphics/SVG/1.1/DTD/svg11.dtd"><svg class="icon" width="64px" height="64.00px" viewBox="0 0 1024 1024" version="1.1" xmlns="http://www.w3.org/2000/svg"><path d="M132.032 0l759.872 0c36.288 0 69.376 14.848 93.312 38.784C1009.152 62.72 1024 95.744 1024 132.032l0 159.488-100.224 0c-7.04-55.104-36.352-96.512-71.552-96.512-35.136 0-64.448 41.344-71.488 96.512L436.096 291.52c-7.04-55.104-36.352-96.512-71.488-96.512-35.136 0-64.448 41.344-71.488 96.512L240.96 291.52C233.728 236.928 204.608 196.032 169.664 196.032c-34.88 0-64 40.896-71.296 95.552L0 291.584 0 132.032C0 95.744 14.848 62.72 38.784 38.784 62.656 14.848 95.744 0 132.032 0L132.032 0zM1024 340.288l0 341.312-100.992 0c-6.72-55.68-36.224-97.472-71.68-97.472-35.392 0-64.896 41.792-71.68 97.472l-54.592 0c-6.4-56.64-36.032-99.584-71.808-99.584-35.84 0-65.536 42.944-71.808 99.584L532.736 681.6c-7.04-55.04-36.352-96.512-71.552-96.512-35.136 0-64.448 41.344-71.488 96.512L0 681.6 0 340.288l97.856 0c6.336 56.64 36.032 99.52 71.808 99.52 35.776 0 65.472-42.88 71.744-99.52l51.584 0c6.528 56.128 36.096 98.56 71.744 98.56s65.216-42.432 71.744-98.56l344.064 0c6.656 56.192 36.16 98.56 71.744 98.56 35.648 0 65.28-42.432 71.808-98.56L1024 340.288 1024 340.288zM1024 730.432l0 161.472c0 36.352-14.848 69.376-38.72 93.312C961.344 1009.152 928.256 1024 891.968 1024L132.032 1024c-36.352 0-69.376-14.848-93.312-38.72C14.848 961.344 0 928.32 0 891.968l0-161.472 389.44 0c6.592 56.128 36.16 98.496 71.744 98.496 35.584 0 65.216-42.432 71.744-98.496l48.96 0c7.232 54.528 36.352 95.424 71.296 95.424s64.064-40.96 71.296-95.424l55.104 0c6.72 55.616 36.224 97.472 71.68 97.472 35.392 0 64.896-41.856 71.616-97.472L1024 730.496z" fill="#ffffff" /></svg>