<?xml version="1.0" standalone="no"?><!DOCTYPE svg PUBLIC "-//W3C//DTD SVG 1.1//EN" "http://www.w3.org/Graphics/SVG/1.1/DTD/svg11.dtd"><svg t="1515640489859" class="icon" style="" viewBox="0 0 1024 1024" version="1.1" xmlns="http://www.w3.org/2000/svg" p-id="2811" xmlns:xlink="http://www.w3.org/1999/xlink" width="200" height="200"><defs><style type="text/css"></style></defs><path d="M544.751 595.22h53.498l0.075-35.283H563.04l57.614-106.082H560.45l-39.629 87.791-16.728 0.076-40.542-87.867h-60.205l57.27 106.082h-35.742v35.36h53.155l5.183 10.746v17.07h-58.338v35.36h58.338v51.212h56.432v-51.212h58.678v-35.36h-58.678v-17.07l5.107-10.823z m207.653-309.405h-63.691v63.691h19.51v418.803H315.776V349.505h19.51v-63.691h-63.69c-10.708 0-19.51 8.764-19.51 19.51v507.167c0 10.782 8.802 19.509 19.51 19.509h480.809c10.707 0 19.51-8.726 19.51-19.509V305.324c-0.001-10.745-8.804-19.509-19.511-19.509z m-84.286-1.09H614.73v-39.03c0-21.459-17.571-53.695-39.03-53.695H448.299c-21.458 0-39.03 32.236-39.03 53.695v39.03h-53.387v78.059h312.236v-78.059z m-117.088 0h-78.06v-39.03H551.028l0.002 39.03z" p-id="2812"></path></svg>