<?xml version="1.0" standalone="no"?><!DOCTYPE svg PUBLIC "-//W3C//DTD SVG 1.1//EN" "http://www.w3.org/Graphics/SVG/1.1/DTD/svg11.dtd"><svg t="1513748458273" class="icon" style="" viewBox="0 0 1024 1024" version="1.1" xmlns="http://www.w3.org/2000/svg" p-id="1638" xmlns:xlink="http://www.w3.org/1999/xlink" width="200" height="200"><defs><style type="text/css"></style></defs><path d="M765.319 194.229H648.21c-25.072 0-45.403-20.328-45.403-45.404 0-25.074 20.331-45.403 45.403-45.403h226.964c25.078 0 45.406 20.327 45.406 45.403v226.967c0 25.073-20.331 45.403-45.406 45.403s-45.401-20.33-45.401-45.403V258.224L549.641 537.537a45.402 45.402 0 1 1-77.211-19.691 45.392 45.392 0 0 1 13.013-44.454l279.876-279.163z m92.44 651.478c0 41.574-21.347 74.871-62.923 74.871H195.453c-41.573 0-92.033-33.297-92.033-74.871V260.572c0-62.817 50.459-94.33 92.033-94.33h314.453c20.786 0 37.692 16.854 37.692 37.691 0 20.889-4.189 56.589-37.692 56.589H260.57c-31.409 0-65.118 2.86-65.118 62.819V763.38c0 41.572 23.544 62.817 65.118 62.817h439.987c62.87 0 62.87-31.408 62.87-62.817V531.255c0-12.154 8.222-48.672 47.651-48.672 39.428 0 46.63 29.418 46.63 48.672v314.452h0.051z" p-id="1639"></path></svg>