<?xml version="1.0" standalone="no"?><!DOCTYPE svg PUBLIC "-//W3C//DTD SVG 1.1//EN" "http://www.w3.org/Graphics/SVG/1.1/DTD/svg11.dtd"><svg t="1513842918403" class="icon" style="" viewBox="0 0 1024 1024" version="1.1" xmlns="http://www.w3.org/2000/svg" p-id="1978" xmlns:xlink="http://www.w3.org/1999/xlink" width="200" height="200"><defs><style type="text/css"></style></defs><path d="M771.597 190.343h-257.32c-15.72 0-28.88 12.866-28.575 28.578 0.297 15.267 12.757 27.488 28.027 27.484h242.292c13.745 0.039 24.876 11.173 24.915 24.92v484.311c-0.039 13.746-11.169 24.88-24.915 24.919H286.384c-3.409 0-9.18-0.156-15.201-0.375-13.015-0.484-23.465-10.911-23.973-23.926-0.242-6.231-0.414-12.357-0.414-16.079V512.342c0-15.72-12.862-28.879-28.575-28.575-15.267 0.297-27.488 12.761-27.488 28.031V763.54c0 15.767 1.854 38.607 17.863 54.839 16.009 16.233 38.786 18.234 54.428 18.234h508.569c36.124 0 65.407-29.279 65.407-65.402V255.748c0-36.123-29.282-65.405-65.403-65.405zM495.261 535.279H381.706c-15.482 0-28.031 12.554-28.031 28.035 0 15.478 12.549 28.027 28.031 28.027H562.92c15.482 0 28.031-12.549 28.031-28.027V381.291c0-15.482-12.549-28.031-28.031-28.031-15.481 0-28.03 12.549-28.03 28.031v114.334L234.688 195.437c-10.969-10.795-28.594-10.724-39.478 0.16s-10.954 28.508-0.16 39.478l300.211 300.204z" p-id="1979"></path></svg>