<?xml version="1.0" standalone="no"?><!DOCTYPE svg PUBLIC "-//W3C//DTD SVG 1.1//EN" "http://www.w3.org/Graphics/SVG/1.1/DTD/svg11.dtd"><svg t="1514183613480" class="icon" style="" viewBox="0 0 1024 1024" version="1.1" xmlns="http://www.w3.org/2000/svg" p-id="1933" xmlns:xlink="http://www.w3.org/1999/xlink" width="200" height="200"><defs><style type="text/css"></style></defs><path d="M343.136058 171.72306l370.576013 0 0 92.186585 45.195342 0 0-92.466971c0-25.535583-20.354584-46.718021-45.933145-46.718021L342.757434 124.724653c-25.535583 0-46.619784 21.187555-46.619784 46.718021l0 92.466971L343.136058 263.909645 343.136058 171.72306 343.136058 171.72306z" p-id="1934"></path><path d="M851.806219 310.909076 203.932646 310.909076c-25.53456 0-46.990221 20.09671-46.990221 45.632293l0 231.371578c0 25.582655 21.455661 46.559409 46.990221 46.559409l92.203982 0L296.136627 819.289642c0 25.582655 21.085224 46.559409 46.619784 46.559409l370.216833 0c25.582655 0 45.933145-20.98494 45.933145-46.559409L758.906389 634.472356l92.898807 0c25.582655 0 46.291302-20.985964 46.291302-46.559409L898.096499 356.541369c0-25.535583-20.62269-45.632293-46.204321-45.632293L851.806219 310.909076 851.806219 310.909076zM713.712071 818.84962 343.136058 818.84962 343.136058 495.28634l370.576013 0L713.712071 818.84962 713.712071 818.84962zM805.527197 449.090205c-25.578562 0-46.273906-20.696368-46.273906-46.269813 0-25.535583 20.696368-46.279023 46.273906-46.279023 25.582655 0 46.279023 20.74344 46.279023 46.279023C851.806219 428.393837 831.109852 449.090205 805.527197 449.090205L805.527197 449.090205 805.527197 449.090205z" p-id="1935"></path><path d="M388.328329 542.28577l186.192609 0 0 45.188178L388.328329 587.473949 388.328329 542.28577 388.328329 542.28577z" p-id="1936"></path><path d="M388.328329 634.472356l278.383288 0 0 46.998407L388.328329 681.470763 388.328329 634.472356 388.328329 634.472356z" p-id="1937"></path><path d="M388.328329 726.663034l278.383288 0 0 46.994314L388.328329 773.657348 388.328329 726.663034 388.328329 726.663034z" p-id="1938"></path></svg>