<?xml version="1.0" standalone="no"?><!DOCTYPE svg PUBLIC "-//W3C//DTD SVG 1.1//EN" "http://www.w3.org/Graphics/SVG/1.1/DTD/svg11.dtd"><svg t="1530081637567" class="icon" style="" viewBox="0 0 1024 1024" version="1.1" xmlns="http://www.w3.org/2000/svg" p-id="7066" xmlns:xlink="http://www.w3.org/1999/xlink" width="200" height="200"><defs><style type="text/css"></style></defs><path d="M568.568 512l254.256-254.255c7.811-7.81 11.715-18.047 11.715-28.284s-3.904-20.474-11.715-28.284c-15.621-15.621-40.947-15.621-56.568 0L512 455.432 257.745 201.176c-15.62-15.621-40.947-15.621-56.568 0-7.811 7.811-11.716 18.047-11.716 28.284s3.905 20.474 11.716 28.284L455.431 512 201.176 766.256c-7.811 7.811-11.716 18.047-11.716 28.283 0 10.238 3.905 20.475 11.716 28.285s18.047 11.715 28.284 11.715 20.474-3.904 28.284-11.715L512 568.568l254.256 254.256c7.811 7.811 18.047 11.715 28.283 11.715 10.238 0 20.475-3.904 28.285-11.715s11.715-18.047 11.715-28.285c0-10.236-3.904-20.473-11.715-28.283L568.568 512z" p-id="7067"></path></svg>