<?xml version="1.0" standalone="no"?><!DOCTYPE svg PUBLIC "-//W3C//DTD SVG 1.1//EN" "http://www.w3.org/Graphics/SVG/1.1/DTD/svg11.dtd"><svg t="1515649258446" class="icon" style="" viewBox="0 0 1024 1024" version="1.1" xmlns="http://www.w3.org/2000/svg" p-id="3783" xmlns:xlink="http://www.w3.org/1999/xlink" width="200" height="200"><defs><style type="text/css"></style></defs><path d="M413.764 405.45l-0.001 19.859v34.104h67.178v26.857h-67.178v54.29h67.178v41.416h62.119V540.56h64.857v-54.29H543.06v-26.857h64.857V405.45h-47.401l55.758-96.147h-55.797L526.75 362.75c-5.04 7.062-9.087 14.014-13.891 20.996-11.969-17.966-15.418-22.629-46.072-72.232l-1.202-2.211h-57.859l55.071 96.147h-49.033z m352.328-208.447l-508.275 1.117c-31.683 0.036-57.559 22.103-57.559 49.187V757.31l94.702 79.078 74.107-64.261 71.73 64.877 71.906-64.877 74.195 64.579 72.521-64.19 71.732 64.282 91.709-79.636v-33.129c0.56-2.621 0.881-5.633 0.881-8.72V246.21c0.001-27.141-25.875-49.207-57.649-49.207z m3.883 518.239c-0.001 1.375-0.177 2.75-0.616 4.813l-0.176 5.448-37.592 49.709-56.681-51.252-29.659-0.519-58.53 51.864-61.96-53.89-24.117-0.409-59.848 53.982-61.962-56.029-18.746-0.26-65.57 56.921-40.496-50.246V267.012c0-11.061 10.561-20.095 23.587-20.095l468.865-1.096c12.938 0 23.499 8.997 23.499 20.077v449.344z m-429.59-38.858h343.229v-56.245H340.385v56.245z" p-id="3784"></path></svg>