<?xml version="1.0" standalone="no"?><!DOCTYPE svg PUBLIC "-//W3C//DTD SVG 1.1//EN" "http://www.w3.org/Graphics/SVG/1.1/DTD/svg11.dtd"><svg t="1515216828972" class="icon" style="" viewBox="0 0 1024 1024" version="1.1" xmlns="http://www.w3.org/2000/svg" p-id="1957" xmlns:xlink="http://www.w3.org/1999/xlink" width="200" height="200"><defs><style type="text/css"></style></defs><path d="M785.221697 56.711516c0-5.648639-4.584403-10.233042-10.233042-10.233042l-695.846824 0c-5.649662 0-10.233042 4.584403-10.233042 10.233042l0 850.202023c0 5.649662 4.583379 10.233042 10.233042 10.233042l480.748291 0-34.843506-40.932166L118.027389 876.214414c-5.649662 0-8.186433-2.536771-8.186433-8.186433L109.840956 95.597074c0-5.648639 2.536771-8.186433 8.186433-8.186433l618.075709 0c5.648639 0 8.186433 2.537794 8.186433 8.186433l0 364.13255 40.932166 0" p-id="1958"></path><path d="M745.0171 613.750202 743.942631 779.122293 776.419235 779.12127 777.494728 613.752248Z" p-id="1959"></path><path d="M893.82292 779.203134 776.843906 778.696598 776.843906 746.223064 893.823944 746.72653Z" p-id="1960"></path><path d="M764.878411 504.207539c-128.151449 0-232.04445 103.889931-232.04445 232.05366S636.726962 968.311788 764.878411 968.311788c128.160659 0 232.052636-103.888908 232.052636-232.052636S893.042139 504.207539 764.878411 504.207539zM764.878411 931.929232c-108.062965 0-195.659847-87.608138-195.659847-195.67008 0-108.065012 87.598929-195.67008 195.659847-195.67008 108.070128 0 195.67008 87.605069 195.67008 195.67008C960.548491 844.321094 872.950586 931.929232 764.878411 931.929232z" p-id="1961"></path><path d="M635.928784 339.166998c0 11.303418-9.162665 20.466083-20.466083 20.466083l-377.599233 0c-11.303418 0-20.466083-9.162665-20.466083-20.466083l0 0c0-11.304441 9.162665-20.466083 20.466083-20.466083l377.599233 0C626.766119 318.700915 635.928784 327.862557 635.928784 339.166998L635.928784 339.166998z" p-id="1962"></path><path d="M564.297494 482.42958c0 11.303418-9.162665 20.466083-20.466083 20.466083l-305.967942 0c-11.303418 0-20.466083-9.162665-20.466083-20.466083l0 0c0-11.304441 9.162665-20.466083 20.466083-20.466083l305.967942 0C555.134828 461.963497 564.297494 471.125139 564.297494 482.42958L564.297494 482.42958z" p-id="1963"></path><path d="M482.433161 615.45912c0 11.303418-9.162665 20.466083-20.466083 20.466083l-224.10361 0c-11.303418 0-20.466083-9.162665-20.466083-20.466083l0 0c0-11.304441 9.162665-20.466083 20.466083-20.466083l224.10361 0C473.270496 594.993037 482.433161 604.154679 482.433161 615.45912L482.433161 615.45912z" p-id="1964"></path></svg>