<?xml version="1.0" standalone="no"?><!DOCTYPE svg PUBLIC "-//W3C//DTD SVG 1.1//EN" "http://www.w3.org/Graphics/SVG/1.1/DTD/svg11.dtd"><svg t="1520421672000" class="icon" style="" viewBox="0 0 1024 1024" version="1.1" xmlns="http://www.w3.org/2000/svg" p-id="2643" xmlns:xlink="http://www.w3.org/1999/xlink" width="200" height="200"><defs><style type="text/css"></style></defs><path d="M652.2 348.1H534v99.7h118.1v-99.7z m-71 91l-24.6-15.6c15-19.4 29-40.3 41.8-62.8l29.1 16.4c-16.6 23.3-32.1 44-46.3 62z m-198.1 8.6h118.1V348H383.1v99.7z m45.9-86.1c20.2 22.1 34.9 40.7 43.9 55.8l-26.7 18.9c-12.9-21.1-26.4-40.6-40.6-58.7l23.4-16zM512 192c-176.7 0-320 143.3-320 320s143.3 320 320 320 320-143.3 320-320-143.3-320-320-320zM348.2 707.4c-8.8-3.8-18.7-8.2-29.9-13.1 15.9-24.9 29.5-51 41-78.3l29.9 11.9c-14.7 32.2-28.4 58.7-41 79.5z m114.1-4.1c-10.4-25.2-21.3-48.9-32.8-71.4l26.7-11.9c12.8 22.1 24.9 45 36.1 68.5l-30 14.8z m102.5-2.9c-11.5-24.3-23.9-47.7-37.3-70.1l25.8-13.5c14.2 20.8 27.8 43.2 40.6 67.3l-29.1 16.3z m125.1 6.6c-20-26-40.2-51-60.7-75.1l24.6-18c21.9 23.8 42.8 47.6 62.8 71.4L689.9 707z m29.1-96.8H315.8v-27.5h185.4v-40.2H347.4v-27.1h153.8v-40.2H383.1v13.1h-30.8V320.6h330.6v167.8h-30.8v-13.1H534v40.2h156.3v27.1H534v40.2h185v27.4z" p-id="2644"></path></svg>