<?xml version="1.0" standalone="no"?><!DOCTYPE svg PUBLIC "-//W3C//DTD SVG 1.1//EN" "http://www.w3.org/Graphics/SVG/1.1/DTD/svg11.dtd"><svg t="1515649245737" class="icon" style="" viewBox="0 0 1024 1024" version="1.1" xmlns="http://www.w3.org/2000/svg" p-id="3675" xmlns:xlink="http://www.w3.org/1999/xlink" width="200" height="200"><defs><style type="text/css"></style></defs><path d="M607.087 468.673H561.84l57.267-61.514c6.167-6.67 6.167-17.18 0-23.945l-11.077-12.083c-6.041-6.638-17.872-6.638-23.913-0.094l-72.244 77.562-72.117-77.5c-6.104-6.702-17.873-6.575-23.914 0l-10.949 11.988c-6.168 6.702-6.168 17.18 0 23.914l57.393 61.671h-45.373c-9.629 0-17.369 7.835-17.369 17.4v17.242c0 9.597 7.74 17.401 17.369 17.401h69.034v17.117h-69.035c-9.629 0-17.37 7.834-17.37 17.4v17.305c0 9.566 7.741 17.37 17.37 17.37h69.035v51.76c0 9.596 7.802 17.4 17.368 17.4h17.37c9.565 0 17.369-7.803 17.369-17.4v-51.76h69.034c9.628 0 17.369-7.803 17.369-17.37v-17.305c0-9.564-7.741-17.4-17.369-17.4h-69.035v-17.117h69.034c9.628 0 17.369-7.803 17.369-17.4v-17.242c-0.001-9.565-7.74-17.4-17.369-17.4z m203.705-18.565c19.76-13.152 21.208-24.605 21.208-41.88V304.457c0-33.353-27.249-60.571-60.601-60.571H252.602c-33.353 0-60.601 27.217-60.601 60.571v103.772c0 17.273 1.637 31.339 22.34 42.478 14.095 6.607 46.819 25.738 46.819 61.294 0 40.432-24.04 53.742-44.868 60.791l-1.826 0.912C194.202 586.32 192 607.307 192 615.74v103.742c0 33.417 27.249 60.632 60.601 60.632h518.796c33.354 0 60.602-27.215 60.602-60.632V615.74c0-22.434-6.23-30.646-22.025-42.351-35.682-18.375-47.134-33.32-47.134-61.388-0.001-28.036 10.634-41.85 47.952-61.893z m-100.06 61.893c0 44.994 27.627 85.994 69.223 103.394v86.844c0 14.223-11.579 25.802-25.801 25.802H269.97c-14.349 0-25.927-11.58-25.927-25.802v-86.844c41.596-17.399 69.223-58.4 69.223-103.394 0-44.995-27.627-85.994-69.223-103.395v-86.78c0-14.285 11.579-25.865 25.927-25.865h484.185c14.223 0 25.801 11.58 25.801 25.865v86.781c-41.597 17.4-69.224 58.399-69.224 103.394z" p-id="3676"></path></svg>