<?xml version="1.0" standalone="no"?><!DOCTYPE svg PUBLIC "-//W3C//DTD SVG 1.1//EN" "http://www.w3.org/Graphics/SVG/1.1/DTD/svg11.dtd"><svg t="1515649101320" class="icon" style="" viewBox="0 0 1024 1024" version="1.1" xmlns="http://www.w3.org/2000/svg" p-id="3351" xmlns:xlink="http://www.w3.org/1999/xlink" width="200" height="200"><defs><style type="text/css"></style></defs><path d="M696.398 621.907h-54.377v-23.752h54.356c12.771 0 23.123-10.352 23.123-23.123 0-12.772-10.352-23.127-23.123-23.127h-44.193l38.886-38.888c9.033-9.03 9.033-23.673 0-32.702-9.031-9.03-23.673-9.03-32.703 0L619.5 519.179l-38.864-38.864c-9.03-9.03-23.673-9.03-32.702 0-9.034 9.033-9.034 23.673 0 32.706l38.885 38.885h-44.192c-12.772 0-23.127 10.355-23.127 23.127 0 12.772 10.355 23.127 23.127 23.127h53.146v23.748h-53.125c-12.772 0-23.123 10.355-23.123 23.127 0 12.771 10.352 23.123 23.123 23.123h53.125v39.063c0 12.772 10.355 23.127 23.127 23.127 12.771 0 23.123-10.355 23.123-23.127v-39.063H696.4c12.772 0 23.126-10.352 23.126-23.123-0.002-12.773-10.356-23.128-23.128-23.128z m135.596-274.566v0.003c-1.138-28.506-24.359-51.648-52.866-52.692l-0.128-0.005H245.113l-0.256 0.006c-28.506 1.047-51.718 24.188-52.85 52.688l-0.007 0.138v410.613l0.006 0.266c1.081 28.556 24.295 51.746 52.85 52.793l177.225 0.005v-0.085c12.329-0.684 22.128-15.87 22.128-28.373 0-12.503-9.799-27.693-22.128-28.377v-0.064H255.714a8.6 8.6 0 0 1-6.759-6.763V358.223a8.595 8.595 0 0 1 6.759-6.763h512.56a8.592 8.592 0 0 1 6.771 6.763v43.545h0.138c0.666 12.347 15.865 22.165 28.377 22.165 12.513 0 27.709-9.818 28.377-22.162H832v-54.149l-0.006-0.281z m-212.839 38.723l-0.003 0.003h-0.013c-117.13 0.174-212.329 95.615-212.213 212.75 0.12 117.096 95.45 212.321 212.534 212.321h0.113C736.706 811.077 832 715.734 832 598.588c-0.104-56.787-22.293-110.153-62.476-150.278-40.182-40.118-93.585-62.225-150.369-62.246z m0.006 378.196c-91.303-0.131-165.513-74.515-165.424-165.814 0.086-91.278 74.387-165.503 165.656-165.503h0.08c91.302 0.043 165.579 74.356 165.579 165.646-0.165 91.308-74.585 165.621-165.891 165.671zM282.27 272.844h457.456c16.153 0 29.37-13.216 29.37-29.37v-1.261c0-16.153-13.216-29.37-29.37-29.37H282.27c-16.153 0-29.37 13.216-29.37 29.37v1.261c0 16.154 13.217 29.37 29.37 29.37z" p-id="3352"></path></svg>