<?xml version="1.0" standalone="no"?><!DOCTYPE svg PUBLIC "-//W3C//DTD SVG 1.1//EN" "http://www.w3.org/Graphics/SVG/1.1/DTD/svg11.dtd"><svg t="1515649341775" class="icon" style="" viewBox="0 0 1024 1024" version="1.1" xmlns="http://www.w3.org/2000/svg" p-id="3999" xmlns:xlink="http://www.w3.org/1999/xlink" width="200" height="200"><defs><style type="text/css"></style></defs><path d="M429.464 192H238.069c-25.212 0-45.713 20.5-45.713 45.713v190.173c0 25.216 20.501 45.717 45.713 45.717H429.46c25.216 0 45.717-20.501 45.717-45.717V237.713c0-25.213-20.501-45.713-45.713-45.713z m-5.718 230.171H243.783V243.43h179.963v178.741zM786.644 192H596.472c-25.217 0-45.713 20.5-45.713 45.713v190.173c0 25.216 20.496 45.717 45.713 45.717h190.173c25.212 0 45.713-20.501 45.713-45.717V237.713C832.357 212.5 811.857 192 786.644 192z m-5.714 230.171H602.185V243.43H780.93v178.741zM427.528 550.402H237.356c-25.212 0-45.713 20.501-45.713 45.713v190.173c0 25.217 20.501 45.713 45.713 45.713h190.173c25.217 0 45.717-20.496 45.717-45.713V596.115c-0.001-25.213-20.501-45.713-45.718-45.713z m-5.714 230.172H243.073V601.829h178.741v178.745z m364.83-230.172H596.472c-25.217 0-45.713 20.501-45.713 45.713v190.173c0 25.217 20.496 45.713 45.713 45.713h190.173c25.212 0 45.713-20.496 45.713-45.713V596.115c-0.001-25.213-20.501-45.713-45.714-45.713z m-5.714 230.172H602.185V601.829H780.93v178.745z m0 0" p-id="4000"></path></svg>