<?xml version="1.0" standalone="no"?><!DOCTYPE svg PUBLIC "-//W3C//DTD SVG 1.1//EN" "http://www.w3.org/Graphics/SVG/1.1/DTD/svg11.dtd"><svg t="1515640467338" class="icon" style="" viewBox="0 0 1024 1024" version="1.1" xmlns="http://www.w3.org/2000/svg" p-id="2703" xmlns:xlink="http://www.w3.org/1999/xlink" width="200" height="200"><defs><style type="text/css"></style></defs><path d="M801.027 722.368l-204.817 0.463v49.849l67.37 16.971v33.932H360.418V789.65l67.37-16.971V722.83l-204.816-0.463c-17.117 0-30.972-13.738-30.972-30.681V281.615c0-16.954 13.855-30.682 30.972-30.682h113.337a175.573 175.573 0 0 0-21.146 50.471h-72.41v320.11H781.23v-320.11H658.307a175.494 175.494 0 0 0-21.146-50.471h163.866c17.097 0 30.973 13.728 30.973 30.682v410.073c0 16.942-13.876 30.68-30.973 30.68zM688.314 517.667c12.16 12.134 12.16 31.81 0 43.945-12.16 12.137-31.877 12.137-44.039 0l-91.359-91.163c-19.805 10.351-42.286 16.287-66.18 16.287-79.065 0-143.159-64.093-143.159-143.159s64.095-143.158 143.159-143.158 143.159 64.093 143.159 143.159c0 32.567-10.999 62.495-29.315 86.549l87.734 87.54zM486.659 252.474c-50.317 0-91.106 40.79-91.106 91.105 0 50.309 40.79 91.1 91.106 91.1 50.318 0 91.108-40.79 91.108-91.1 0-50.315-40.79-91.105-91.108-91.105z" p-id="2704"></path></svg>