<?xml version="1.0" standalone="no"?><!DOCTYPE svg PUBLIC "-//W3C//DTD SVG 1.1//EN" "http://www.w3.org/Graphics/SVG/1.1/DTD/svg11.dtd"><svg t="1515640381739" class="icon" style="" viewBox="0 0 1024 1024" version="1.1" xmlns="http://www.w3.org/2000/svg" p-id="2595" xmlns:xlink="http://www.w3.org/1999/xlink" width="200" height="200"><defs><style type="text/css"></style></defs><path d="M360 434.832h250.667v64H360v-64z m0-106.667h250.667v64H360v-64z m0 213.334h143.333v64H360v-64z m445.333 101.978C783.498 607.088 783.85 606.4 783.85 606.4s-75.376 21.136-89.413-51.115h-43.669s-12.043 72.363-89.056 50.939c-22.267 37.109-23.024 38.272-23.045 38.293 0.032 0.021 60.283 42.117 0 99.285l23.397 38.469s66.56-28.715 88.363 49.728h44.187s13.861-72.085 88.715-50.773c21.312-36.384 21.659-36.736 21.659-36.736s-56.513-48.714 0.345-101.013z m-133.68 101.104c-28.128 0-50.944-22.805-50.944-50.944s22.811-50.949 50.944-50.949c28.133 0 50.949 22.811 50.949 50.949s-22.815 50.944-50.949 50.944z m-357.194 23.734c-23.595 0-42.72-19.125-42.72-42.72v-427.19c0-23.595 19.125-42.72 42.72-42.72h341.749c23.6 0 42.72 19.125 42.72 42.72v226.928H752v-280C752 215.877 728.123 192 698.667 192H272c-29.456 0-53.333 23.877-53.333 53.333v533.333C218.667 808.117 242.544 832 272 832h245.333v-63.685H314.459z" p-id="2596"></path></svg>