<?xml version="1.0" standalone="no"?><!DOCTYPE svg PUBLIC "-//W3C//DTD SVG 1.1//EN" "http://www.w3.org/Graphics/SVG/1.1/DTD/svg11.dtd"><svg t="1513130192187" class="icon" style="" viewBox="0 0 1024 1024" version="1.1" xmlns="http://www.w3.org/2000/svg" p-id="1488" xmlns:xlink="http://www.w3.org/1999/xlink" width="200" height="200"><defs><style type="text/css"></style></defs><path d="M895.946644 0H128.053356A128.053356 128.053356 0 0 0 0 128.053356v767.893288a128.053356 128.053356 0 0 0 128.053356 128.053356h767.893288a128.053356 128.053356 0 0 0 128.053356-128.053356V128.053356a128.053356 128.053356 0 0 0-128.053356-128.053356zM256.106711 895.946644H128.053356v-128.053355h128.053355v128.053355z m0-192.080033H128.053356V576.2401h128.053355v128.053356z m0-192.080033H128.053356V384.160067h128.053355v128.053355z m320.133389 384.160066H448.186744v-128.053355h128.053356v128.053355z m0-192.080033H448.186744V576.2401h128.053356v128.053356z m0-192.080033H448.186744V384.160067h128.053356v128.053355z m320.133389 384.160066h-128.053356v-128.053355h128.053356v128.053355z m0-192.080033h-128.053356V576.2401h128.053356v128.053356z m0-192.080033h-128.053356V384.160067h128.053356v128.053355z m0-320.133389a64.026678 64.026678 0 0 1-64.026678 64.026678H192.080033a64.026678 64.026678 0 0 1-64.026677-64.026678V128.053356a64.026678 64.026678 0 0 1 64.026677-64.026678h640.266778a64.026678 64.026678 0 0 1 64.026678 64.026678v64.026677z" fill="" p-id="1489"></path></svg>