<?xml version="1.0" standalone="no"?><!DOCTYPE svg PUBLIC "-//W3C//DTD SVG 1.1//EN" "http://www.w3.org/Graphics/SVG/1.1/DTD/svg11.dtd"><svg class="icon" width="64px" height="64.00px" viewBox="0 0 1024 1024" version="1.1" xmlns="http://www.w3.org/2000/svg"><path d="M914.2 486.5l-43.9-27c-9.1-5.6-21.1-2.7-26.6 6.4l-101 164.4 77 47.2 100.9-164.3c5.5-9.1 2.6-21.1-6.4-26.7zM595.5 870.3c3 32.5 7 74.9 7 74.9s45-17.4 70-27.7l134.9-219.8-77-47.2-134.9 219.8zM919.9 577.3c-7.1-4.4-16.5-2.1-20.9 5L828 698c-4.4 7.1-2.1 16.5 5 20.9s16.5 2.1 20.9-5l71-115.7c4.3-7.1 2.1-16.5-5-20.9z" fill="#ffffff" /><path d="M623.4 911c-1.3-0.8-2.9-0.4-3.7 0.9L601 942.3c-0.8 1.3-0.4 2.9 0.9 3.7 1.3 0.8 2.9 0.4 3.7-0.9l18.7-30.4c0.8-1.3 0.4-3-0.9-3.7zM760.4 77.7h-603c-33.4 0-60.5 27.1-60.5 60.5v745.2c0 33.4 27.1 60.5 60.5 60.5h336.5l327-494.2V138.2c0-33.4-27.1-60.5-60.5-60.5zM498.9 583.4c0 13.8-11.3 25-25 25h-230c-13.8 0-25-11.2-25-25s11.3-25 25-25h230c13.7 0 25 11.2 25 25z m200-160c0 13.8-11.3 25-25 25h-430c-13.8 0-25-11.2-25-25s11.3-25 25-25h430c13.7 0 25 11.2 25 25z m0-160c0 13.8-11.3 25-25 25h-430c-13.8 0-25-11.2-25-25 0-13.7 11.3-25 25-25h430c13.7 0 25 11.2 25 25z" fill="#ffffff" /></svg>