<?xml version="1.0" standalone="no"?><!DOCTYPE svg PUBLIC "-//W3C//DTD SVG 1.1//EN" "http://www.w3.org/Graphics/SVG/1.1/DTD/svg11.dtd"><svg t="1515216841722" class="icon" style="" viewBox="0 0 1024 1024" version="1.1" xmlns="http://www.w3.org/2000/svg" p-id="2071" xmlns:xlink="http://www.w3.org/1999/xlink" width="200" height="200"><defs><style type="text/css"></style></defs><path d="M845.888 1024a37.696 37.696 0 0 1-37.568-37.568v-103.04h-103.04a37.632 37.632 0 0 1 0-75.072h103.04v-103.04a37.632 37.632 0 0 1 75.072 0v103.04h103.04a37.632 37.632 0 0 1 0 75.072h-103.04v103.04a37.632 37.632 0 0 1-37.504 37.568M512 75.84a246.784 246.784 0 0 0-246.528 246.528A246.784 246.784 0 0 0 512 568.96a246.848 246.848 0 0 0 246.592-246.528A246.848 246.848 0 0 0 512 75.84zM32.64 1023.744a39.04 39.04 0 0 1-25.792-14.4 32.064 32.064 0 0 1-6.464-24.576c26.176-177.92 170.176-328.192 360.64-378.752a323.072 323.072 0 0 1-171.328-283.648A322.752 322.752 0 0 1 512 0a322.752 322.752 0 0 1 322.368 322.432 322.56 322.56 0 0 1-177.088 287.36 532.8 532.8 0 0 1 103.232 41.728c8.96 4.864 15.296 12.8 17.6 22.08a31.744 31.744 0 0 1-4.544 25.728 38.144 38.144 0 0 1-32.192 16.64 39.616 39.616 0 0 1-18.944-4.736 465.472 465.472 0 0 0-220.288-54.656c-215.232 0-398.912 145.152-427.264 337.6-2.624 16.96-18.624 29.824-37.184 29.824l-5.056-0.192z" p-id="2072"></path></svg>