<?xml version="1.0" standalone="no"?><!DOCTYPE svg PUBLIC "-//W3C//DTD SVG 1.1//EN" "http://www.w3.org/Graphics/SVG/1.1/DTD/svg11.dtd"><svg class="icon" width="64px" height="63.88px" viewBox="0 0 1026 1024" version="1.1" xmlns="http://www.w3.org/2000/svg"><path d="M663.370906 569.344l-105.984 195.584-15.872-46.592 29.184-58.88-58.368-58.88-58.368 58.88 29.184 58.88-18.944 47.616-103.424-196.608s-163.328 73.216-220.16 117.76c-56.832 44.032-106.496 316.928-106.496 316.928-2.048 11.264 5.12 19.968 16.384 19.968h924.16c11.264 0 18.944-9.216 16.896-19.968 0 0-41.984-264.704-108.544-316.928-56.32-44.032-219.648-117.76-219.648-117.76zM739.658906 265.216c0-95.232-0.512-265.216-222.208-265.216-221.184 0-221.696 169.984-221.696 265.216 0 95.232 88.576 273.408 222.208 272.896 133.12 0 221.696-177.664 221.696-272.896zM894.794906 607.232l-20.48 37.888s17.92 11.264 47.616 46.08c29.696 34.816 44.032 100.864 44.032 100.864h43.52c11.264 0 18.944-9.216 16.896-19.968 0 0-14.848-95.744-41.984-116.736-23.552-18.432-89.6-48.128-89.6-48.128z m30.72-123.904c0-38.912 0-108.032-90.112-108.032s-90.112 69.12-90.112 108.032c0 38.912 35.84 111.104 90.112 111.104 54.272 0 90.112-72.192 90.112-111.104z" fill="#ffffff" /><path d="M131.914906 607.232l20.48 37.888s-17.92 11.264-47.616 46.08c-29.696 34.816-44.032 100.864-44.032 100.864H17.226906c-11.264 0-18.944-9.216-16.896-19.968 0 0 14.848-95.744 41.984-116.736 23.04-18.432 89.6-48.128 89.6-48.128z m-31.232-123.904c0-38.912 0-108.032 90.112-108.032s90.112 69.12 90.112 108.032c0 38.912-35.84 111.104-90.112 111.104-53.76 0-90.112-72.192-90.112-111.104z" fill="#ffffff" /></svg>