<?xml version="1.0" standalone="no"?><!DOCTYPE svg PUBLIC "-//W3C//DTD SVG 1.1//EN" "http://www.w3.org/Graphics/SVG/1.1/DTD/svg11.dtd"><svg class="icon" width="64px" height="60.01px" viewBox="0 0 1092 1024" version="1.1" xmlns="http://www.w3.org/2000/svg"><path d="M1029.098879 329.805742c-114.223426-79.149965-226.142756-160.006667-338.936789-237.812576-45.335222-31.297304-91.289137-63.341306-138.672445-91.993166h-12.288512c-18.112755 6.400267-48.002 33.153381-70.253594 48.599358C331.875161 143.643318 198.770949 237.364557 63.213301 331.533814 41.089712 346.915788 15.040627 358.926955 0 381.83991v24.299679c8.213676 17.643402 19.008792 30.507938 38.636277 31.254636 24.449019 0.938706 82.200758-24.385016 97.92408-27.883829v614.489604H955.773157v-614.425601c21.952915 24.982374 125.871911 35.713488 136.539023-3.370807v-26.07042c-15.403308-22.806284-41.175049-35.052127-63.213301-50.32743zM409.617067 887.460978h-136.539022v-136.539023h136.539022z m0-204.808534h-136.539022v-136.539023h136.539022z m0-204.808534h-136.539022v-136.539022h136.539022z m204.808534 409.617068h-136.539022v-136.539023h136.539022z m0-204.808534h-136.539022v-136.539023h136.539022z m204.808534 204.808534h-136.539023v-136.539023h136.539023z" fill="#ffffff" /></svg>