<?xml version="1.0" standalone="no"?><!DOCTYPE svg PUBLIC "-//W3C//DTD SVG 1.1//EN" "http://www.w3.org/Graphics/SVG/1.1/DTD/svg11.dtd"><svg t="1520421687206" class="icon" style="" viewBox="0 0 1024 1024" version="1.1" xmlns="http://www.w3.org/2000/svg" p-id="2859" xmlns:xlink="http://www.w3.org/1999/xlink" width="200" height="200"><defs><style type="text/css"></style></defs><path d="M512 192c-176.7 0-320 143.3-320 320s143.3 320 320 320 320-143.3 320-320-143.3-320-320-320z m172.6 455.1c0 34.7-17.1 52-51.3 51.7-18 0-40.2-0.3-66.4-0.8-0.8-9.3-2.9-21.2-6.2-35.7 26 2.2 47.6 3.4 64.8 3.7 17.2 0.5 25.8-8.1 25.8-25.8V407.5H533.2c-1.1 24.9-4.1 47-9 66.4 48.4 38.8 87.5 73 117.3 102.5l-25 26.7c-29.3-32-63.3-65.2-102.1-99.7-18.6 40.2-54 75.2-106.2 105-11.5-15.9-19.1-25.7-23-29.5 44.6-23.5 75.1-49.6 91.5-78.3 13.1-21.1 20.8-52.1 23-93.1H382.3v294.9h-33.2v-326h151.3v-70.5H534v70.5h150.5v270.7z" p-id="2860"></path></svg>