<?xml version="1.0" standalone="no"?><!DOCTYPE svg PUBLIC "-//W3C//DTD SVG 1.1//EN" "http://www.w3.org/Graphics/SVG/1.1/DTD/svg11.dtd"><svg class="icon" width="64px" height="64.00px" viewBox="0 0 1024 1024" version="1.1" xmlns="http://www.w3.org/2000/svg"><path d="M180.906 967.029h54.132c16.559 0 30.008-13.45 30.008-30.014V625.236H150.893v311.78c0 16.564 13.448 30.013 30.013 30.013zM539.37 55.582h-54.131c-16.56 0-30.007 13.449-30.007 30.013V549.21h114.154V85.595c-0.113-16.564-13.457-30.013-30.016-30.013z m-304.332 0h-54.132c-16.565 0-30.013 13.449-30.013 30.013v273.767h114.153V85.595c-0.108-16.564-13.449-30.013-30.008-30.013z m608.665 0H789.57c-16.558 0-30.005 13.449-30.005 30.013V245.54h114.153V85.595c-0.112-16.564-13.45-30.013-30.015-30.013z m67.912 227.861h-190.18c-21.009 0-38.01 17.004-38.01 38.013v113.931c0 21.01 17.001 38.014 38.01 38.014h190.18c21.01 0 38.021-17.005 38.021-38.014v-113.93c0.11-21.01-17.011-38.014-38.02-38.014zM789.462 967.03h54.133c16.558 0 30.01-13.45 30.01-30.014v-425.71H759.453v425.71c0.114 16.565 13.446 30.014 30.01 30.014zM607.396 587.225H417.104c-21.01 0-38.013 17.002-38.013 38.011v113.931c0 21.01 17.004 38.013 38.013 38.013h190.178c21.01 0 38.016-17.004 38.016-38.013v-113.93c0.115-21.01-16.898-38.012-37.902-38.012zM485.13 967.029h54.127c16.565 0 30.017-13.45 30.017-30.014v-121.93h-114.04v121.93c-0.002 16.565 13.332 30.014 29.896 30.014zM303.06 397.374h-190.18c-21.009 0-38.012 17.004-38.012 38.013v113.93c0 21.01 17.003 38.014 38.012 38.014h190.18c21.01 0 38.02-17.004 38.02-38.013V435.387c0-21.01-17.01-38.013-38.02-38.013z" fill="#ffffff" /></svg>