<?xml version="1.0" standalone="no"?><!DOCTYPE svg PUBLIC "-//W3C//DTD SVG 1.1//EN" "http://www.w3.org/Graphics/SVG/1.1/DTD/svg11.dtd"><svg t="1515649366306" class="icon" style="" viewBox="0 0 1024 1024" version="1.1" xmlns="http://www.w3.org/2000/svg" p-id="4107" xmlns:xlink="http://www.w3.org/1999/xlink" width="200" height="200"><defs><style type="text/css"></style></defs><path d="M828.8 463.6c0-7.9-6.4-15.9-14.3-17.5l-66.7-23.8c-27-9.5-46.1-41.3-41.3-69.9l12.7-71.5c1.6-7.9-3.2-15.9-9.5-19.1l-81-47.6c-6.4-3.2-15.9-3.2-22.2 1.6l-54 46.1c-22.2 19.1-58.8 19.1-81 0l-54-46.1c-4.8-4.8-14.3-6.4-22.2-1.6l-81 47.6c-6.4 3.2-11.1 12.7-9.5 19.1l12.7 71.5c4.8 28.6-12.7 60.3-41.3 69.9l-66.7 23.8c-6.4 3.2-12.7 11.1-14.3 17.5l-3.2 34.9v27l3.2 34.9c0 7.9 6.4 15.9 14.3 17.5l66.7 23.8c27 9.5 46.1 41.3 41.3 69.9l-12.7 71.5c-1.6 7.9 3.2 15.9 9.5 19.1l81 47.6c6.4 3.2 15.9 3.2 22.2-1.6l54-46.1c22.2-19.1 58.8-19.1 81 0l54 46.1c4.8 4.8 14.3 6.4 22.2 1.6l81-47.6c6.4-3.2 11.1-12.7 9.5-19.1l-12.7-71.5c-4.8-28.6 12.7-60.3 41.3-69.9l66.7-23.8c6.4-3.2 12.7-11.1 14.3-17.5l3.2-34.9v-27l-3.2-34.9zM778 520.7l-1.6 14.3-47.6 17.5c-50.8 19.1-84.2 74.6-74.6 128.6l7.9 47.6L624 751l-36.5-30.2c-41.3-36.5-108-36.5-149.3 0L401.6 751l-38.1-22.2 7.9-47.6c9.5-54-22.2-109.6-74.6-128.6L249.2 535l-1.6-14.3v-15.9l1.6-14.3 47.6-17.5c50.8-19.1 84.2-74.6 74.6-128.6l-7.9-47.6 38.1-22.2 36.5 30.2c41.3 36.5 108 36.5 149.3 0l36.5-30.2 38.1 22.2-7.9 47.6c-9.5 54 22.2 109.6 74.6 128.6l47.6 17.5 1.6 14.3c1.7 3.2 1.7 11.2 0.1 15.9zM514.4 384.2c-68.3 0-123.9 55.6-123.9 123.9 0 68.3 55.6 123.9 123.9 123.9 68.3 0 123.9-55.6 123.9-123.9 0-68.4-55.6-123.9-123.9-123.9z m0 193.7c-39.7 0-71.5-31.8-71.5-69.9 0-39.7 31.8-69.9 71.5-69.9s71.5 31.8 71.5 69.9c-0.1 38.1-31.8 69.9-71.5 69.9z" p-id="4108"></path></svg>