<?xml version="1.0" standalone="no"?><!DOCTYPE svg PUBLIC "-//W3C//DTD SVG 1.1//EN" "http://www.w3.org/Graphics/SVG/1.1/DTD/svg11.dtd"><svg t="1515216854061" class="icon" style="" viewBox="0 0 1024 1024" version="1.1" xmlns="http://www.w3.org/2000/svg" p-id="2179" xmlns:xlink="http://www.w3.org/1999/xlink" width="200" height="200"><defs><style type="text/css"></style></defs><path d="M451.072 923.136c-12.288-16.896-24.576-33.792-37.888-51.712-58.368 22.528-74.24 13.312-81.408-51.712-45.568 12.288-75.776 14.336-82.944-61.44-10.24 2.048-20.992 8.192-29.696 5.632-15.872-4.096-36.352-9.728-44.032-21.504-7.68-11.776-8.704-39.424-0.512-48.128 43.008-42.496 31.232-77.312-5.632-114.688-7.68-8.192-4.096-27.648-5.632-42.496 3.584-1.024 7.68-2.048 11.264-3.584 15.872 19.456 30.72 40.448 48.128 58.368 9.216 9.216 23.04 18.432 35.84 18.944 31.232 2.048 45.568 17.92 46.08 47.104 0.512 20.992 9.728 26.112 29.696 31.232 15.36 3.584 32.768 18.944 38.912 33.792 8.704 19.968 18.432 28.16 39.424 33.28 13.824 3.072 25.6 16.896 36.864 27.648 10.752 10.24 18.944 23.552 30.208 33.792 11.776 10.752 25.6 20.48 39.424 29.184 10.24 6.656 21.504 14.848 32.768 15.36 8.704 0.512 21.504-7.168 26.624-14.848 3.072-4.608-3.584-18.944-9.728-24.576-20.992-18.432-45.056-33.792-66.048-52.224-5.632-4.608-6.144-15.36-9.216-23.04 8.704 0.512 19.456-2.048 25.6 2.048 38.912 26.112 77.312 52.736 115.2 80.384 17.92 12.8 36.352 20.48 51.712-0.512 15.36-21.504 5.632-38.4-14.336-52.736-39.936-28.16-79.872-56.32-118.272-86.528-7.68-6.144-9.728-18.944-14.848-29.184 10.24 1.536 22.016 0.512 29.696 5.632 45.568 30.72 90.624 62.976 135.168 94.72 5.12 3.584 10.24 7.68 15.36 10.752 16.384 10.24 33.28 14.848 46.592-3.584 13.824-18.944 7.68-35.328-9.728-48.128-52.736-38.912-105.984-77.312-158.72-116.224-5.632-4.096-13.312-7.68-16.896-13.312-3.584-5.12-3.584-12.8-4.608-18.944 5.632-1.536 12.288-5.12 17.408-3.584 8.704 3.072 16.384 8.192 24.064 13.824 53.248 37.888 107.008 75.776 160.256 114.176 20.48 14.848 40.96 22.016 60.416 0 16.896-18.944 13.824-40.96-10.24-61.952-88.064-77.824-176.64-155.136-265.728-231.936-35.328-30.72-86.016-14.336-98.816 31.232-11.776 42.496-36.352 73.216-79.872 83.456-15.36 3.584-34.816-0.512-50.176-6.656-7.168-2.56-15.36-18.944-13.824-27.648 4.608-32.256 12.8-64.512 20.48-96.256 4.608-18.944 12.288-36.864 19.968-59.392h-89.088c3.072-31.744 17.408-43.52 45.568-40.448 20.48 2.048 41.984 2.56 62.464 0 31.232-4.096 63.488-7.68 92.672-17.92 51.2-17.92 101.376-16.384 153.088-3.584 34.304 8.704 69.12 14.336 102.912 23.04 9.216 2.56 20.48 9.728 24.576 17.92 40.96 81.92 80.384 164.352 119.808 246.784 3.072 6.656 6.656 17.92 3.072 23.04-17.408 27.136-9.728 51.712 1.024 78.848 12.8 32.768-7.168 70.144-43.008 80.384-18.432 5.632-26.112 14.336-30.72 32.256-9.728 37.376-40.96 45.568-74.24 48.128-21.504 55.296-42.496 64.512-98.816 48.64-7.168-2.048-16.896 4.096-25.088 7.68-18.432 7.68-39.424 26.112-54.272 22.016-35.84-10.752-53.248 7.168-72.192 29.184h-26.112m-274.944-737.28c19.968 10.752 39.424 22.016 59.392 32.768 16.896 8.704 22.016 19.968 13.312 37.888-46.592 96.768-92.672 194.048-139.264 290.816-9.216 18.944-23.552 22.528-40.96 13.312-23.04-11.776-45.056-25.088-67.584-37.376v-18.944c27.648-53.76 55.808-107.52 83.456-161.28 26.624-52.224 52.736-104.96 78.848-157.184h12.8m680.96 0c10.24 16.384 22.016 32.256 30.72 49.664 42.496 84.48 83.456 169.472 126.464 253.44 13.824 27.136 8.192 40.96-18.944 53.248-65.536 29.696-65.536 30.72-97.28-34.816-39.936-80.896-78.848-162.304-119.296-243.2-11.776-23.04-9.728-38.4 15.872-49.664 17.408-7.68 33.28-18.944 50.176-29.184l12.288 0.512m0 0" p-id="2180"></path></svg>