<?xml version="1.0" standalone="no"?><!DOCTYPE svg PUBLIC "-//W3C//DTD SVG 1.1//EN" "http://www.w3.org/Graphics/SVG/1.1/DTD/svg11.dtd"><svg t="1515649440698" class="icon" style="" viewBox="0 0 1024 1024" version="1.1" xmlns="http://www.w3.org/2000/svg" p-id="4431" xmlns:xlink="http://www.w3.org/1999/xlink" width="200" height="200"><defs><style type="text/css"></style></defs><path d="M512 202c-171.2 0-310 138.8-310 310s138.8 310 310 310 310-138.8 310-310-138.8-310-310-310z m0.8 569.7c-142.5 0-258-115.5-258-258s115.5-258 258-258 258 115.5 258 258c0 142.4-115.5 258-258 258z m-103-295.3c-12.7-7.2-28.4-7.2-41.1 0-12.7 7.2-20.5 20.9-20.5 35.5 0 14.7 7.8 28 20.5 35.5 12.7 7.2 28.4 7.2 41.1 0 12.7-7.2 20.5-20.9 20.5-35.5 0-14.7-7.8-28-20.5-35.5z m122.9 0c-13-7.2-28.7-7.2-41.1 0-12.7 7.2-20.5 20.9-20.5 35.5 0 22.5 18.3 41.1 41.1 41.1s41.1-18.3 41.1-41.1c-0.1-14.7-7.9-28-20.6-35.5z m122.6 0c-12.7-7.2-28.4-7.2-41.1 0-12.7 7.2-20.5 20.9-20.5 35.5 0 14.7 7.8 28 20.5 35.5 12.7 7.2 28.4 7.2 41.1 0 12.7-7.2 20.5-20.9 20.5-35.5-0.3-14.6-8-28-20.5-35.5z" p-id="4432"></path></svg>