<?xml version="1.0" standalone="no"?><!DOCTYPE svg PUBLIC "-//W3C//DTD SVG 1.1//EN" "http://www.w3.org/Graphics/SVG/1.1/DTD/svg11.dtd"><svg t="1515649060049" class="icon" style="" viewBox="0 0 1024 1024" version="1.1" xmlns="http://www.w3.org/2000/svg" p-id="3135" xmlns:xlink="http://www.w3.org/1999/xlink" width="200" height="200"><defs><style type="text/css"></style></defs><path d="M769.86 261.262h-53.052v29.584c-0.09 27.037-21.988 48.932-49.026 49.022-27.14-0.018-49.137-22.012-49.153-49.153v-29.453h-213.26v29.584c0 27.084-21.956 49.037-49.041 49.037s-49.041-21.953-49.041-49.037v-29.584h-53.152c-29.871 0.086-54.081 24.254-54.224 54.125v459.52c0.09 29.909 24.316 54.135 54.224 54.224H769.86c29.912-0.09 54.138-24.315 54.228-54.224v-459.52c-0.142-29.871-24.353-54.039-54.228-54.125z m-2.111 493.098c-0.037 11.152-9.069 20.183-20.22 20.221H276.44c-11.155-0.037-20.186-9.069-20.223-20.221V405.355c0.037-11.155 9.068-20.187 20.223-20.221h471.12c11.151 0.034 20.186 9.065 20.22 20.221l-0.031 349.005zM633.213 468.669l-168.53 148.46-74.185-54.086c-12.27-11.446-31.4-11.115-43.264 0.75s-12.2 30.997-0.753 43.267l94.668 94.665a31.05 31.05 0 0 0 23.534 9.007 31.05 31.05 0 0 0 23.538-9.007l189.007-189.008c11.723-12.227 11.518-31.583-0.452-43.562-11.974-11.981-31.326-12.196-43.563-0.486zM354.631 314.87h5.408c15.013 0 27.296-12.283 27.296-27.296v-65.408c0-15.013-12.283-27.296-27.296-27.296h-5.408c-15.013 0-27.296 12.283-27.296 27.296v65.408c0 15.012 12.283 27.296 27.296 27.296z m312.064 6.392h5.408c15.013 0 27.296-12.283 27.296-27.296v-65.408c0-15.013-12.283-27.296-27.296-27.296h-5.408c-15.013 0-27.296 12.283-27.296 27.296v65.408c0 15.013 12.284 27.296 27.296 27.296z" p-id="3136"></path></svg>