<?xml version="1.0" standalone="no"?><!DOCTYPE svg PUBLIC "-//W3C//DTD SVG 1.1//EN" "http://www.w3.org/Graphics/SVG/1.1/DTD/svg11.dtd"><svg class="icon" width="64px" height="64.00px" viewBox="0 0 1024 1024" version="1.1" xmlns="http://www.w3.org/2000/svg"><path d="M680.64 87.936c16.256 4.672 30.784 13.376 42.432 25.088 17.856 17.856 28.928 42.432 28.928 69.568l0 70.72c0 27.136-11.072 51.712-28.928 69.568-17.792 17.792-42.368 28.864-69.504 28.864L370.432 351.744c-27.072 0-51.712-11.072-69.504-28.864C283.072 305.024 272 280.448 272 253.312L272 182.592c0-27.136 11.072-51.712 28.864-69.568 11.648-11.648 26.24-20.416 42.496-25.088 2.496-22.912 12.864-43.584 28.288-59.008C389.504 11.072 414.08 0 441.216 0l141.504 0c27.136 0 51.776 11.072 69.568 28.928C667.84 44.352 678.208 65.024 680.64 87.936L680.64 87.936zM155.84 64C121.728 64 90.752 77.952 68.352 100.352 45.888 122.752 32 153.728 32 187.84l0 712.384c0 34.048 13.888 65.088 36.352 87.488C90.752 1010.048 121.728 1024 155.84 1024l712.384 0c34.048 0 65.088-13.952 87.424-36.288 22.464-22.464 36.352-53.44 36.352-87.488L992 187.84c0-34.048-13.952-65.024-36.352-87.488C933.248 77.952 902.272 64 868.16 64l-143.36 0c9.536 5.76 18.432 12.8 26.496 20.8l0.064-0.064c12.672 12.672 22.912 27.904 30.016 44.928 6.848 16.448 10.624 34.304 10.624 52.928l0 70.72c0 18.624-3.776 36.48-10.624 52.864-7.04 17.088-17.344 32.256-30.016 44.992-12.672 12.672-27.968 22.912-44.928 30.016-16.448 6.848-34.304 10.624-52.864 10.624L370.432 391.808c-18.56 0-36.416-3.776-52.864-10.624-17.024-7.04-32.32-17.344-44.992-30.016C259.968 338.496 249.664 323.264 242.624 306.176 235.776 289.792 232 271.936 232 253.312L232 182.592c0-18.624 3.776-36.48 10.624-52.928 7.04-17.024 17.344-32.256 30.016-44.928C280.448 76.864 289.344 69.952 299.2 64L155.84 64 155.84 64zM272 727.552l63.424-63.872 92.992 92.032 259.904-259.968L752 559.36 429.248 883.84 272 727.552z" fill="#ffffff" /></svg>