<?xml version="1.0" standalone="no"?><!DOCTYPE svg PUBLIC "-//W3C//DTD SVG 1.1//EN" "http://www.w3.org/Graphics/SVG/1.1/DTD/svg11.dtd"><svg t="1515640502444" class="icon" style="" viewBox="0 0 1024 1024" version="1.1" xmlns="http://www.w3.org/2000/svg" p-id="2919" xmlns:xlink="http://www.w3.org/1999/xlink" width="200" height="200"><defs><style type="text/css"></style></defs><path d="M704.078 217.115h-60.113c-9.443-20.723-43.528-35.121-70.227-35.121H436.523c-26.262 0-49.474 13.855-59.919 35.121h-56.688c-35.574 0-74.523 35.353-74.523 66.505v501.881c0 31.155 38.949 56.505 74.523 56.505h384.165c35.577 0 74.526-25.35 74.526-56.505V283.594c-0.019-31.139-38.969-66.479-74.529-66.479z m-283.276 25.572l0.719-1.06c2.325-3.959 8.772-6.948 15.001-6.948H573.73c6.229 0 12.68 2.986 15.008 6.948l0.7 1.034c1.564 2.013 2.09 3.477 2.09 5.799 0.003 2.347-0.52 3.802-2.058 5.76l-0.735 1.076c-2.325 3.959-8.772 6.948-15.005 6.948H436.523c-6.232 0-12.68-2.986-14.998-6.942l-0.71-1.047c-1.57-2.016-2.1-3.477-2.1-5.792 0-2.324 0.527-3.782 2.087-5.776z m291.064 522.808c0 7.481-8.159 13.804-17.817 13.804H329.922c-9.652 0-17.804-6.322-17.804-13.804V293.604c0-7.485 8.152-13.807 17.804-13.807h46.393c9.443 20.73 33.522 35.124 60.227 35.124h137.205c26.256 0 59.473-13.861 69.925-35.124h50.435c9.652 0 17.804 6.322 17.804 13.807l-0.045 471.891z m-59.121-259.419H513.581C478.75 506.348 483 525.934 483 538.045c0 12.115-1.799 31.955 30.582 31.975h139.164c28.755-0.521 30.585-19.861 30.585-31.975-0.001-12.108 2.069-31.293-30.586-31.969z m-139.164-69.632h139.164c30.422 0.223 30.585-19.861 30.585-31.975 0-12.112-2.762-31.469-30.585-31.972H513.581C482.2 372 483 392.357 483 404.469s-0.8 33.531 30.581 31.975z m139.164 203.219H513.581C477.5 639.792 483 659.523 483 671.638s-5.249 32.245 30.582 31.975h139.164c29.818 0 30.585-19.861 30.585-31.975s0.138-31.982-30.586-31.975zM457.227 491.682c-7.793-7.793-20.544-7.793-28.337 0l-34.55 34.55-9.605 8.743a0.627 0.627 0 0 1-0.623 0.125l-2.347-2.347-12.221-12.849-0.302-0.279a15.746 15.746 0 0 0-3.262-2.068c-7.47-4.867-17.639-4.034-24.18 2.507-7.501 7.501-7.501 19.774 0 27.275l30.979 30.979c7.202 7.202 18.792 7.468 26.344 0.84a19.866 19.866 0 0 0 4.577-3.406l54.63-54.63c7.793-7.793 7.793-20.544 0-28.337l-1.103-1.103z m-90.375-55.026c1.607 2.848 4.375 5.729 7.197 7.499a16.15 16.15 0 0 0 2.381 1.262c7.413 4.479 17.242 3.548 23.624-2.834 0.038-0.038 0.07-0.081 0.108-0.119a19.882 19.882 0 0 0 2.984-2.446l54.63-54.63c7.793-7.793 7.793-20.544 0-28.337l-1.103-1.103c-7.793-7.793-20.544-7.793-28.337 0l-43.822 43.822-15.44-15.44c-7.501-7.501-19.774-7.501-27.275 0-7.501 7.501-7.501 19.774 0 27.275l25.053 25.051z m29.2 174.677c-33.137 0-60 26.863-60 60s26.863 60 60 60 60-26.863 60-60-26.863-60-60-60z m0.004 88.131c-15.345 0-27.832-12.484-27.832-27.826 0-15.351 12.484-27.842 27.832-27.842 15.345 0 27.832 12.49 27.832 27.842 0 15.342-12.487 27.826-27.832 27.826z" p-id="2920"></path></svg>