<?xml version="1.0" standalone="no"?><!DOCTYPE svg PUBLIC "-//W3C//DTD SVG 1.1//EN" "http://www.w3.org/Graphics/SVG/1.1/DTD/svg11.dtd"><svg t="1515649092152" class="icon" style="" viewBox="0 0 1024 1024" version="1.1" xmlns="http://www.w3.org/2000/svg" p-id="3243" xmlns:xlink="http://www.w3.org/1999/xlink" width="200" height="200"><defs><style type="text/css"></style></defs><path d="M553.904 768.658H271.37c-10.525 0-19.299 1.234-19.299-9.292V262.633c0-4.012 3.283-7.295 7.295-7.295h501.537c4.012 0 7.295 3.283 7.295 7.295v297.344c0 17.49 14.179 31.669 31.669 31.669 17.49 0 31.669-14.179 31.669-31.669V264.63c0-40.351-32.629-72.63-72.63-72.63H261.364c-40.352 0-72.631 32.633-72.631 72.63v494.737c0 40.352 32.633 72.631 72.631 72.631h292.54c17.491 0 31.67-14.179 31.67-31.67s-14.179-31.67-31.67-31.67z m273.422 18.777l-1.051-1.051-1.054-1.052-122.103-122.105c14.036-21.054 22.105-46.315 22.105-73.335 0-73.682-59.65-133.331-133.331-133.331-73.685 0-133.335 59.65-133.335 133.331 0 73.685 59.65 133.335 133.335 133.335 27.717 0 53.683-8.423 74.736-23.159L789.08 822.523c0 0.351 0.354 0.351 0.354 0.701l1.051 1.054c0.35 0.351 0.35 0.351 0.701 0.351l0.35 0.35c10.178 9.474 26.316 9.474 36.14-0.701 10.178-9.824 10.178-26.315-0.35-36.843zM591.538 669.894c-44.21 0-79.999-35.79-79.999-80.003 0-44.209 35.79-79.998 79.999-79.998 44.212 0 80.002 35.79 80.002 79.998 0 44.214-35.79 80.003-80.002 80.003zM462.187 488.647v-24c0-16.569-13.431-30-30-30H307.26c-16.569 0-30 13.431-30 30v24c0 16.569 13.431 30 30 30h124.928c16.568 0 29.999-13.431 29.999-30z m-151.195 82.827c-16.5 0-30 13.5-30 30v24c0 16.5 13.5 30 30 30h62.728c16.5 0 30-13.5 30-30v-24c0-16.5-13.5-30-30-30h-62.728z m389.887-216.676v-24c0-16.5-13.5-30-30-30H306.086c-16.5 0-30 13.5-30 30v24c0 16.5 13.5 30 30 30h364.793c16.5 0 30-13.5 30-30z" p-id="3244"></path></svg>