<?xml version="1.0" standalone="no"?><!DOCTYPE svg PUBLIC "-//W3C//DTD SVG 1.1//EN" "http://www.w3.org/Graphics/SVG/1.1/DTD/svg11.dtd"><svg t="1515221501341" class="icon" style="" viewBox="0 0 1024 1024" version="1.1" xmlns="http://www.w3.org/2000/svg" p-id="1986" xmlns:xlink="http://www.w3.org/1999/xlink" width="200" height="200"><defs><style type="text/css"></style></defs><path d="M930.122503 632.847002 613.120806 632.847002l68.898418-68.897395c11.569032-11.569032 11.569032-30.325087 0-41.895142-11.569032-11.574148-30.331227-11.574148-41.900259 0L520.664749 641.502541c-0.356128 0.356128-0.703045 0.720442-1.039729 1.09499-0.122803 0.136106-0.237418 0.273236-0.356128 0.409342-0.195461 0.227185-0.396038 0.4513-0.587406 0.683601-0.168854 0.205694-0.324404 0.414459-0.48814 0.620153-0.133036 0.17397-0.265049 0.337707-0.397062 0.515771-0.179087 0.237418-0.341801 0.47893-0.511678 0.720442-0.108476 0.150433-0.213881 0.300866-0.318263 0.455393-0.168854 0.250722-0.328497 0.506561-0.492234 0.767516-0.096195 0.150433-0.191367 0.300866-0.282446 0.450276-0.15555 0.255839-0.296773 0.515771-0.442089 0.77161-0.096195 0.16783-0.187274 0.33259-0.278353 0.496327-0.133036 0.246629-0.255839 0.492234-0.379665 0.738863-0.096195 0.191367-0.191367 0.378641-0.278353 0.570009-0.109499 0.229232-0.209788 0.456416-0.310077 0.684625-0.099265 0.218998-0.196484 0.442089-0.287563 0.666204-0.085962 0.200578-0.163737 0.405249-0.241512 0.610943-0.100289 0.250722-0.196484 0.506561-0.291656 0.7624-0.058331 0.17704-0.117686 0.355104-0.17704 0.537262-0.096195 0.283469-0.191367 0.571032-0.278353 0.858595-0.045028 0.15555-0.091079 0.31417-0.133036 0.473813-0.091079 0.305983-0.17704 0.615037-0.254815 0.93023-0.036841 0.14634-0.064471 0.291656-0.100289 0.437996-0.073682 0.32338-0.14634 0.647784-0.209788 0.971164-0.031724 0.150433-0.055261 0.300866-0.081868 0.4513-0.059355 0.32338-0.114616 0.642667-0.16476 0.967071-0.022514 0.172947-0.040934 0.346917-0.064471 0.519864-0.040934 0.300866-0.081868 0.602756-0.108476 0.906693-0.023537 0.233325-0.037864 0.461533-0.055261 0.693835-0.01842 0.250722-0.040934 0.497351-0.050144 0.748073-0.023537 0.432879-0.032747 0.865759-0.035817 1.299661 0 0.055261-0.005117 0.105406-0.005117 0.159643 0 0.055261 0.005117 0.109499 0.005117 0.163737 0.00307 0.433903 0.013304 0.867805 0.035817 1.300685 0.00921 0.250722 0.031724 0.497351 0.050144 0.742956 0.017397 0.233325 0.031724 0.465627 0.055261 0.697928 0.026607 0.300866 0.067541 0.60685 0.108476 0.906693 0.023537 0.17397 0.041958 0.346917 0.064471 0.520888 0.050144 0.32338 0.105406 0.64369 0.16476 0.967071 0.026607 0.150433 0.050144 0.300866 0.081868 0.452323 0.064471 0.32338 0.136106 0.646761 0.209788 0.967071 0.035817 0.150433 0.063448 0.296773 0.100289 0.442089 0.076752 0.31417 0.163737 0.620153 0.254815 0.93023 0.041958 0.15862 0.086985 0.318263 0.133036 0.473813 0.085962 0.287563 0.182157 0.574102 0.278353 0.856548 0.059355 0.179087 0.118709 0.360221 0.17704 0.538285 0.096195 0.255839 0.191367 0.506561 0.291656 0.761376 0.077775 0.205694 0.15555 0.411389 0.241512 0.611966 0.091079 0.223091 0.188297 0.442089 0.287563 0.665181 0.100289 0.229232 0.200578 0.456416 0.310077 0.679508 0.085962 0.191367 0.182157 0.382735 0.278353 0.571032 0.123826 0.249699 0.250722 0.496327 0.379665 0.737839 0.091079 0.168854 0.182157 0.33259 0.278353 0.497351 0.14634 0.259932 0.287563 0.515771 0.442089 0.770587 0.091079 0.15555 0.191367 0.305983 0.282446 0.456416 0.16476 0.259932 0.32338 0.514748 0.492234 0.76547 0.105406 0.15555 0.213881 0.305983 0.318263 0.456416 0.168854 0.241512 0.33259 0.483024 0.511678 0.720442 0.132013 0.172947 0.264026 0.341801 0.397062 0.514748 0.163737 0.205694 0.318263 0.415482 0.48814 0.621177 0.191367 0.232302 0.391945 0.455393 0.587406 0.684625 0.118709 0.136106 0.233325 0.273236 0.356128 0.409342 0.337707 0.370455 0.683601 0.734769 1.039729 1.089873l119.453192 119.453192c5.781957 5.787074 13.366043 8.679076 20.950129 8.679076 7.579993 0 15.164079-2.892002 20.946036-8.679076 11.569032-11.569032 11.569032-30.327134 0-41.900259l-68.893301-68.892278 317.001697 0c16.363451 0 29.624089-13.266778 29.624089-29.628182C959.746592 646.117874 946.48493 632.847002 930.122503 632.847002L930.122503 632.847002zM631.439889 243.846121c0-16.362428-13.266778-29.628182-29.628182-29.628182l-388.527068 0c-16.362428 0-29.628182 13.265755-29.628182 29.628182s13.265755 29.624089 29.628182 29.624089l388.527068 0C618.173111 273.47021 631.439889 260.209572 631.439889 243.846121L631.439889 243.846121zM481.856047 422.100285c0-16.366521-13.262685-29.627159-29.624089-29.627159L213.284639 392.473126c-16.362428 0-29.628182 13.260638-29.628182 29.627159 0 16.362428 13.265755 29.624089 29.628182 29.624089l238.948343 0C468.594386 451.724374 481.856047 438.462712 481.856047 422.100285L481.856047 422.100285zM213.284639 571.67901c-16.362428 0-29.628182 13.266778-29.628182 29.628182 0 16.362428 13.265755 29.628182 29.628182 29.628182l179.207931 0c16.361404 0 29.628182-13.265755 29.628182-29.628182 0-16.361404-13.266778-29.628182-29.628182-29.628182L213.284639 571.67901 213.284639 571.67901zM930.122503 782.430845c-16.366521 0-29.628182 13.260638-29.628182 29.624089l0 70.711804c0 10.547723-8.586974 19.13572-19.134697 19.13572L332.277321 901.902457l0-30.112229c0-16.363451-13.266778-29.624089-29.628182-29.624089-16.362428 0-29.628182 13.260638-29.628182 29.624089l0 59.740412c0 15.025926 11.191413 27.435132 25.693381 29.35904 0.496327 0.132013 1.012098 0.214905 1.541173 0.232302 0.794124 0.023537 1.595411 0.032747 2.394651 0.032747l578.710484 0c38.868057 0 71.223481-28.443137 77.348263-65.605261 0.679508-2.4888 1.043822-5.112683 1.043822-7.816388l0-75.678147C959.746592 795.691482 946.48493 782.430845 930.122503 782.430845L930.122503 782.430845zM881.359623 185.06357 834.638338 185.06357c-16.366521 0-29.628182 13.266778-29.628182 29.628182 0 16.363451 13.261661 29.628182 29.628182 29.628182l46.721286 0c10.547723 0 19.134697 8.582881 19.134697 19.13572l0 247.128021c0 16.362428 13.262685 29.628182 29.628182 29.628182 16.363451 0 29.624089-13.265755 29.624089-29.628182L959.746592 263.455655C959.746592 220.232198 924.582057 185.06357 881.359623 185.06357L881.359623 185.06357zM482.097559 811.10526c16.494441 0 29.870717-13.37116 29.870717-29.865601 0-16.257022-12.992519-29.468539-29.154369-29.851274l0-0.01842L142.575905 751.369965c-10.55284 0-19.134697-8.581857-19.134697-19.134697L123.441208 143.984042c0-10.55284 8.581857-19.13572 19.134697-19.13572L672.518393 124.848322c10.55284 0 19.139814 8.582881 19.139814 19.13572l0 280.026847c0 16.362428 13.260638 29.628182 29.624089 29.628182 16.361404 0 29.627159-13.265755 29.627159-29.628182L750.909455 143.984042c0-43.226527-35.164534-78.393108-78.392085-78.393108L142.575905 65.590934c-43.226527 0-78.392085 35.165558-78.392085 78.393108l0 588.251226c0 43.222434 35.164534 78.391062 78.392085 78.391062l334.204299 0C478.508652 810.937429 480.28315 811.10526 482.097559 811.10526L482.097559 811.10526zM482.097559 811.10526" p-id="1987"></path></svg>