<?xml version="1.0" standalone="no"?><!DOCTYPE svg PUBLIC "-//W3C//DTD SVG 1.1//EN" "http://www.w3.org/Graphics/SVG/1.1/DTD/svg11.dtd"><svg t="1515649230804" class="icon" style="" viewBox="0 0 1024 1024" version="1.1" xmlns="http://www.w3.org/2000/svg" p-id="3567" xmlns:xlink="http://www.w3.org/1999/xlink" width="200" height="200"><defs><style type="text/css"></style></defs><path d="M546.444 669.79h63.886v44.451h44.451V669.79h63.886v-44.451h-63.886l63.886-103.333h-44.451l-41.66 62.327-41.66-62.327h-44.451L610.33 625.34h-63.886v44.45z m206.667-388.895h-34.444c-3.049-50.889-24.111-88.901-68.889-88.901H374.222c-44.778 0-72.427 29.013-68.889 88.901h-34.444c-34.444 3.444-65.444 34.444-68.889 68.889v167.797h64.463V473.13h491.073v279.981c0 17.222-30.673 14.432-44.451 14.432H300.908c-27.556 0-34.444 2.79-34.444-14.432V708.66H202v68.235c3.444 31 27.556 55.111 58.556 55.111h506.333c27.556 0 55.111-24.111 55.111-55.111V349.784c-3.444-34.444-34.444-65.444-68.889-68.889z m4.426 127.772H266.463V389.81c3.444-17.222-2.79-41.006 14.432-44.451h14.432l10.006-0.155h64.463v-54.302c0-31 13.451-34.444 44.451-34.444h195.505c31 0 44.451 3.444 44.451 34.444v54.302h64.463l10.006 0.155h14.432c17.222 3.444 10.987 27.229 14.432 44.451v18.857z m-348.87-43.296h206.667v-64.463H408.667v64.463z m49.454 242.746c-1.361-75.598-65.612-85.984-118.343-86.111h-58.883v172.222h78.895c58.556 0.001 98.331-30.999 98.331-86.111z m-122.769-31.654h24.438s37.832-3.229 38.472 31.654c0.572 31.155-38.472 31.654-38.472 31.654h-24.438v-63.308z" p-id="3568"></path></svg>