<?xml version="1.0" standalone="no"?><!DOCTYPE svg PUBLIC "-//W3C//DTD SVG 1.1//EN" "http://www.w3.org/Graphics/SVG/1.1/DTD/svg11.dtd"><svg t="1513843086664" class="icon" style="" viewBox="0 0 1024 1024" version="1.1" xmlns="http://www.w3.org/2000/svg" p-id="2303" xmlns:xlink="http://www.w3.org/1999/xlink" width="200" height="200"><defs><style type="text/css"></style></defs><path d="M822.374 775.325L715.44 668.391a32.398 32.398 0 0 0-1.16-1.101c92.547-114.232 85.105-282.805-22.366-390.276-113.349-115.488-299.413-115.488-414.899 0-113.353 115.49-113.353 301.554 0 417.041 57.742 57.745 132.596 85.549 207.448 85.549 64.41 0 130.388-22.189 182.975-65.163 0.311 0.338 0.624 0.675 0.951 1.002l106.934 106.934c12.835 14.969 34.22 14.969 47.052 0 12.834-12.833 12.834-34.22-0.001-47.052zM313.371 657.697c-94.102-94.102-94.102-250.224 0-344.326 47.052-47.051 109.072-70.576 171.091-70.576 62.023 0 126.184 23.525 173.235 70.576 94.099 94.102 94.099 250.225 0 344.326-94.101 94.102-250.223 94.102-344.326 0z" p-id="2304"></path></svg>