<?xml version="1.0" standalone="no"?><!DOCTYPE svg PUBLIC "-//W3C//DTD SVG 1.1//EN" "http://www.w3.org/Graphics/SVG/1.1/DTD/svg11.dtd"><svg t="1513843079222" class="icon" style="" viewBox="0 0 1024 1024" version="1.1" xmlns="http://www.w3.org/2000/svg" p-id="2194" xmlns:xlink="http://www.w3.org/1999/xlink" width="200" height="200"><defs><style type="text/css"></style></defs><path d="M738.873 305.75H470.751v-20.625a61.878 61.878 0 0 0-61.877-61.874h-165c-34.171 0-61.874 27.703-61.874 61.874v412.5c0 56.955 46.172 103.124 103.124 103.124h453.749C795.828 800.749 842 754.58 842 697.625V408.874c0-56.953-46.172-103.124-103.127-103.124z m61.877 391.875a61.872 61.872 0 0 1-61.876 61.876h-453.75c-34.171 0-61.873-27.702-61.873-61.876v-412.5c0-11.39 9.233-20.623 20.623-20.623h165a20.624 20.624 0 0 1 20.625 20.623v41.25c0 11.392 9.234 20.626 20.626 20.626h288.747c34.174 0 61.877 27.703 61.877 61.873v288.751z m0 0" p-id="2195"></path><path d="M615.123 512.002H553.25v-61.877c-0.003-11.389-9.236-20.62-20.626-20.62-11.389 0-20.623 9.231-20.626 20.62v61.877h-61.873c-11.389 0-20.623 9.233-20.623 20.622 0 11.39 9.234 20.626 20.623 20.626h61.873v61.877c0.003 11.389 9.236 20.62 20.626 20.62 11.389 0 20.623-9.231 20.626-20.62V553.25h61.873c11.39 0 20.623-9.236 20.623-20.626 0-11.389-9.233-20.622-20.623-20.622z m0 0" p-id="2196"></path></svg>