<?xml version="1.0" standalone="no"?><!DOCTYPE svg PUBLIC "-//W3C//DTD SVG 1.1//EN" "http://www.w3.org/Graphics/SVG/1.1/DTD/svg11.dtd"><svg t="1513843065859" class="icon" style="" viewBox="0 0 1024 1024" version="1.1" xmlns="http://www.w3.org/2000/svg" p-id="2086" xmlns:xlink="http://www.w3.org/1999/xlink" width="200" height="200"><defs><style type="text/css"></style></defs><path d="M775.213 655.571h-119.64v-119.72c0-13.174-10.68-23.854-23.854-23.854h-0.149c-13.174 0-23.854 10.68-23.854 23.854V655.57H488.072c-13.215 0-23.928 10.713-23.928 23.928 0 13.215 10.713 23.928 23.928 23.928h119.645v119.645c0 13.215 10.713 23.928 23.928 23.928s23.928-10.713 23.928-23.928V703.427h119.64c13.215 0 23.928-10.713 23.928-23.928 0.001-13.215-10.713-23.928-23.928-23.928z m-23.928-320.642L641.216 224.856 593.356 177H272.715c-26.43 0-47.856 21.426-47.856 47.856v574.288c0 26.43 21.426 47.856 47.856 47.856h167.501c13.215 0 23.928-10.713 23.928-23.928 0-13.215-10.713-23.928-23.928-23.928H272.715V224.856h287.142v143.573c0 26.43 21.426 47.856 47.856 47.856h143.573v71.784c0 13.215 10.713 23.928 23.928 23.928s23.928-10.713 23.928-23.928V382.785l-47.857-47.856z m-143.568 33.5V258.356l110.068 110.073H607.717z" p-id="2087"></path></svg>