<?xml version="1.0" standalone="no"?><!DOCTYPE svg PUBLIC "-//W3C//DTD SVG 1.1//EN" "http://www.w3.org/Graphics/SVG/1.1/DTD/svg11.dtd"><svg t="1513923138247" class="icon" style="" viewBox="0 0 1024 1024" version="1.1" xmlns="http://www.w3.org/2000/svg" p-id="1841" xmlns:xlink="http://www.w3.org/1999/xlink" width="200" height="200"><defs><style type="text/css"></style></defs><path d="M937.246467 153.562686 869.805059 86.096246C857.401874 73.652387 837.265793 73.652387 824.844974 86.096246L759.014656 151.935666 869.795388 265.999735 937.235373 198.522203C949.665865 186.100529 949.665865 165.969568 937.241062 153.562686L937.246467 153.562686 937.246467 153.562686ZM375.262324 580.833826 442.696906 648.305954C455.106632 660.727627 423.037552 628.629819 465.176806 670.76509L824.850378 310.97006 711.651587 199.330308 352.781001 558.322636C364.730497 570.289768 362.852313 568.412152 375.25692 580.833826L375.262324 580.833826 375.262324 580.833826ZM214.82818 786.346668C207.556652 801.026828 221.597949 816.075342 237.250622 808.8004L409.161802 704.714914 318.875835 614.383721 214.82818 786.346668 214.82818 786.346668ZM510.121815 715.761584C500.832725 725.059493 489.193843 729.724091 477.185467 732.067341L198.807151 869.728892C167.476205 884.252892 142.385107 856.182527 153.926426 824.839064L291.542466 546.328198C293.875192 534.318685 298.526137 522.682931 307.831725 513.3836L802.370477 18.614448C827.205291-6.203014 867.456973-6.203014 892.286382 18.614448L1004.671377 131.055479C1029.506475 155.884034 1029.506475 196.184357 1004.671377 221.007508L510.12722 715.761584 510.121815 715.761584 510.121815 715.761584ZM127.165642 1023.999986C56.936398 1023.999986 0.000647 967.046031 0.000647 896.797729L0.000647 133.511084C0.000647 63.257662 57.772094 0.269511 128.005321 0.269511L640.004674 0.269511 640.004674 73.416014 129.898012 71.15383C94.777986 71.15383 70.884113 93.767704 70.884113 128.895126L70.884113 896.039116C70.884113 931.159712 92.896103 953.34379 128.005321 953.34379L895.714786 953.34379C930.802101 953.34379 952.725061 931.139232 952.725061 896.039116L952.725061 384.171177 1023.999353 384.171177 1023.999353 896.039116C1024.004757 966.298227 960.38002 1023.994581 890.150775 1023.994581L127.165642 1023.999986 127.165642 1023.999986Z" p-id="1842"></path></svg>