<?xml version="1.0" standalone="no"?><!DOCTYPE svg PUBLIC "-//W3C//DTD SVG 1.1//EN" "http://www.w3.org/Graphics/SVG/1.1/DTD/svg11.dtd"><svg t="1516011730385" class="icon" style="" viewBox="0 0 1024 1024" version="1.1" xmlns="http://www.w3.org/2000/svg" p-id="2746" xmlns:xlink="http://www.w3.org/1999/xlink" width="200" height="200"><defs><style type="text/css"></style></defs><path d="M512 228.847l78.99 160.051a66.103 66.103 0 0 0 49.778 36.166l176.625 25.665L689.587 575.31a66.1 66.1 0 0 0-19.014 58.519l30.171 175.912-157.978-83.054A66.362 66.362 0 0 0 512 719.092a66.375 66.375 0 0 0-30.765 7.594L323.256 809.74l30.172-175.914a66.104 66.104 0 0 0-19.014-58.517l-127.808-124.58 176.625-25.665a66.1 66.1 0 0 0 49.779-36.167L512 228.847m0-92.682c-5.747 0-11.494 2.994-14.449 8.982L388.174 366.769a16.11 16.11 0 0 1-12.132 8.814l-244.575 35.539c-13.216 1.92-18.493 18.162-8.93 27.484l176.976 172.509a16.113 16.113 0 0 1 4.634 14.262l-41.779 243.586c-1.786 10.415 6.489 18.872 15.878 18.872 2.477 0 5.034-0.589 7.501-1.887l218.754-115.006a16.106 16.106 0 0 1 14.996 0l218.754 115.006c2.468 1.298 5.023 1.887 7.501 1.887 9.389 0 17.664-8.458 15.878-18.872l-41.778-243.586a16.113 16.113 0 0 1 4.634-14.262l176.976-172.509c9.563-9.322 4.286-25.563-8.93-27.484l-244.575-35.539a16.115 16.115 0 0 1-12.132-8.814L526.449 145.147c-2.955-5.988-8.702-8.982-14.449-8.982z" p-id="2747"></path></svg>