<?xml version="1.0" standalone="no"?><!DOCTYPE svg PUBLIC "-//W3C//DTD SVG 1.1//EN" "http://www.w3.org/Graphics/SVG/1.1/DTD/svg11.dtd"><svg t="1515669129648" class="icon" style="" viewBox="0 0 1024 1024" version="1.1" xmlns="http://www.w3.org/2000/svg" p-id="2595" xmlns:xlink="http://www.w3.org/1999/xlink" width="200" height="200"><defs><style type="text/css"></style></defs><path d="M754.217 246.068h-62.844c-12.274 0-22.235 9.961-22.235 22.235 0 12.273 9.961 22.23 22.235 22.23h62.844c9.808 0 17.785 7.946 17.785 17.727v274.558H251.998V308.26c0-9.781 7.973-17.727 17.785-17.727h69.453c12.274 0 22.235-9.957 22.235-22.23 0-12.274-9.961-22.235-22.235-22.235h-69.453c-34.328 0-62.25 27.895-62.25 62.192v475.629c0 34.355 27.922 62.25 62.25 62.25h484.434c34.324 0 62.25-27.895 62.25-62.25V308.26c0-34.297-27.926-62.192-62.25-62.192z m17.785 537.821c0 9.812-7.977 17.785-17.785 17.785H269.783c-9.812 0-17.785-7.973-17.785-17.785V627.283h520.004v156.606zM349.193 370.662l141.758 141.723c4.324 4.359 10.016 6.519 15.707 6.519 0.594 0 1.129-0.296 1.691-0.324 0.622 0.028 1.157 0.356 1.778 0.356 1.426 0 2.64-0.563 3.945-0.801 1.512-0.266 3.082-0.324 4.504-0.918 2.758-1.125 5.277-2.785 7.32-4.891l141.727-141.664c8.683-8.687 8.683-22.765 0-31.453-8.684-8.684-22.766-8.684-31.453 0L532.361 442.99V200.096c0-12.274-9.961-22.235-22.234-22.235-12.27 0-22.231 9.961-22.231 22.235v246.39l-107.25-107.277c-8.683-8.684-22.765-8.684-31.449 0-8.687 8.688-8.687 22.766-0.004 31.453z m-1.183 359.02h319.226c12.274 0 22.235-9.961 22.235-22.235 0-12.273-9.961-22.23-22.235-22.23H348.01c-12.274 0-22.235 9.957-22.235 22.23 0 12.274 9.961 22.235 22.235 22.235z" p-id="2596"></path></svg>