<?xml version="1.0" standalone="no"?><!DOCTYPE svg PUBLIC "-//W3C//DTD SVG 1.1//EN" "http://www.w3.org/Graphics/SVG/1.1/DTD/svg11.dtd"><svg class="icon" width="64px" height="63.94px" viewBox="0 0 1025 1024" version="1.1" xmlns="http://www.w3.org/2000/svg"><path d="M837.748329 640.892501c-5.503763-4.671799-8.319642-7.295686-11.39151-9.599587-31.806632-23.678982-43.26214-50.493829-37.054407-93.819966 22.655026-159.097159-106.555418-290.163523-236.98181-304.242918C387.847675 215.374798 252.493495 318.60236 231.630392 476.227582c-24.958927 188.215907 141.753905 345.713134 329.201844 310.066667 21.055095-4.031827 35.326481 0.511978 49.085889 15.743323 9.727582 10.751538 22.079051 19.199174 37.310396 32.190616-42.942153 22.463034-43.518129 57.469529-41.278225 93.49998 2.175906 35.454475-4.351813 69.565009-39.742291 83.900392-38.590341 15.615329-82.300461 18.879188-118.330912-4.543805-16.575287-10.751538-25.150919-37.374393-31.742635-58.557482-4.991785-16.063309-0.767967-34.8785-1.215948-52.413746-0.639972-28.030795-13.439422-48.765903-39.550299-59.709432-25.982883-10.943529-49.789859-6.27173-70.204981 13.631414-12.607458 12.223474-24.89493 24.89493-37.886371 36.73442-25.150919 23.039009-60.22141 29.75872-85.948304 11.071524-22.527031-16.319298-43.198142-36.798418-59.709432-59.197455-18.111221-24.446949-10.879532-62.269322 11.39151-86.012301 11.967485-12.735452 25.214916-24.446949 37.502387-36.926412 17.919229-18.303213 24.318954-40.446261 16.575287-64.701218C179.024654 625.725153 160.401455 609.917833 133.970592 606.461982 113.619467 603.838094 92.948356 604.286075 72.405239 603.326116 28.055146 601.15021 2.328252 575.423316 0.408335 531.137221c-0.575975-13.631414-0.511978-27.326825 0-41.022236C2.008266 444.484947 30.871025 416.26216 76.821049 415.238204c16.639285-0.383983 33.342566 0.639972 49.917854-0.319986 27.646811-1.599931 49.213884-14.399381 59.453444-40.382264 10.23956-25.854888 4.543805-49.789859-15.615329-69.757C159.505494 293.70743 148.43397 282.699903 137.554437 271.436388c-4.671799-4.863791-9.599587-9.855576-13.055439-15.551331-24.19096-39.99828-9.855576-79.804568 44.350093-124.154661 31.614641-25.854888 69.948992-24.574943 100.795666 3.775838 12.927444 11.903488 24.958927 24.830932 37.950368 36.670423 20.799106 19.007183 45.438046 23.167004 70.780956 12.223474 24.254957-10.495549 38.014365-29.694723 37.758376-57.405532C416.006464 108.371399 415.942467 89.7482 417.286409 71.252996c2.623887-35.838459 25.918885-63.869254 60.989377-68.797042 22.911015-3.26386 47.037977-3.26386 70.076987-0.063997 33.02258 4.607802 56.765559 33.72655 58.557482 67.581094 1.087953 19.519161-0.895961 39.166316 0.70397 58.557482 2.239904 27.070836 14.65537 47.869942 41.470217 58.493485 27.134833 10.751538 49.725862 3.775838 69.757-15.551331 8.447637-8.127651 16.319298-16.831276 24.638941-25.150919 5.567761-5.503763 10.943529-11.263516 17.151262-15.999312 39.230313-30.078707 82.940434-17.407251 130.106405 37.566385 28.734764 33.470561 26.878844 73.340846-4.735796 104.571503-12.479463 12.351469-25.598899 24.318954-36.542429 38.014365-17.023268 21.311084-22.655026 46.014021-9.919573 71.16494 11.967485 23.48699 32.702594 35.454475 59.709432 35.454475 16.639285 0 33.342566-0.575975 49.917854 0.191992 39.614297 1.919917 67.965078 25.34291 72.892866 63.101287 2.751882 21.055095 2.751882 43.070148-0.127994 64.125243-5.055783 37.502387-34.622511 61.757344-72.956863 63.165284-11.775494 0.511978-23.550987 0.895961-35.262484-0.063997C883.122378 605.310031 857.907462 614.717627 837.748329 640.892501L837.748329 640.892501zM312.522914 460.292267c24.19096 25.34291 47.997936 51.005807 72.700874 75.836739C432.261765 583.486969 493.443134 584.958906 538.753186 540.416821c46.717991-45.886027 46.078019-105.915446-2.943873-154.489357-25.022924-24.702938-51.645779-47.805944-75.260764-75.516753 63.357276-18.815191 120.634813-8.511634 172.024603 27.262828 81.4045 56.701562 111.803192 152.441445 78.588621 245.749433-6.335728 17.727238-1.023956 26.686852 10.23956 37.694379 60.797386 59.389446 121.594771 118.84289 181.816182 178.936306 34.494517 34.430519 32.702594 75.708745-3.327857 106.875404-29.054751 25.150919-65.277193 24.19096-94.65193-4.543805-60.861383-59.389446-121.338782-119.162876-181.112212-179.704273-13.887403-14.079395-24.766935-17.66324-45.182057-10.815535-80.188552 26.878844-153.273409 10.431551-214.390781-47.613953C307.083148 609.661844 289.803891 541.632769 303.755291 465.476044 306.699164 463.748118 309.57904 462.020193 312.522914 460.292267L312.522914 460.292267zM854.259619 816.884933c-20.22313 2.431895-33.918542 12.927444-35.838459 34.366522-1.599931 19.583158 16.51129 37.310396 36.414434 37.374393 20.22313 0.063997 36.990409-17.023268 35.902456-37.566385C889.458106 828.916416 876.018684 818.740854 854.259619 816.884933L854.259619 816.884933zM854.259619 816.884933" fill="#ffffff" /></svg>