<?xml version="1.0" standalone="no"?><!DOCTYPE svg PUBLIC "-//W3C//DTD SVG 1.1//EN" "http://www.w3.org/Graphics/SVG/1.1/DTD/svg11.dtd"><svg class="icon" width="64px" height="61.65px" viewBox="0 0 1063 1024" version="1.1" xmlns="http://www.w3.org/2000/svg"><path d="M805.487862 505.184025a74.173845 74.173845 0 0 0-40.09397 66.555991v50.518402l80.18794-31.674236v-50.919343c0.801879-28.065779-17.641347-43.301488-40.09397-34.480814zM805.487862 669.970243a55.329679 55.329679 0 0 0-30.872357 51.721221c0 16.839468 8.419734 27.2639 20.447925 28.06578V801.879405l20.447925-7.617854v-54.12686a59.740016 59.740016 0 0 0 20.447925-43.702428c0-21.249804-13.63195-32.877056-30.471418-26.46202z" fill="#ffffff" /><path d="M1002.349256 198.064213l-164.385278-72.971026L320.751762 368.062647v155.965544l-90.211433-40.09397V327.968677l517.212216-242.96946L573.744714 7.617854a120.281911 120.281911 0 0 0-84.197337 0L61.744714 198.064213A112.664056 112.664056 0 0 0 0 293.086922v445.84495a113.064996 113.064996 0 0 0 64.150352 95.423649l426.599844 182.427564a120.281911 120.281911 0 0 0 80.18794 0l426.599844-182.427564a113.465936 113.465936 0 0 0 63.348473-95.423649V293.086922A112.664056 112.664056 0 0 0 1002.349256 198.064213zM928.977291 801.879405a37.688332 37.688332 0 0 1-20.848865 33.277995l-204.880188 76.980423c-10.825372 4.410337-20.046985-3.608457-20.046985-17.641347v-215.30462a36.886453 36.886453 0 0 1 20.046985-32.877056l30.471417-12.028191v-50.518402a131.508222 131.508222 0 0 1 71.768207-116.673454c40.09397-15.636648 71.768207 11.627251 71.768207 60.541895v50.919343l30.872357-12.028191c11.226312-4.410337 20.848865 3.608457 20.848865 17.641346z" fill="#ffffff" /></svg>