<?xml version="1.0" standalone="no"?><!DOCTYPE svg PUBLIC "-//W3C//DTD SVG 1.1//EN" "http://www.w3.org/Graphics/SVG/1.1/DTD/svg11.dtd"><svg t="1516011724247" class="icon" style="" viewBox="0 0 1024 1024" version="1.1" xmlns="http://www.w3.org/2000/svg" p-id="2638" xmlns:xlink="http://www.w3.org/1999/xlink" width="200" height="200"><defs><style type="text/css"></style></defs><path d="M526.449 145.146l109.377 221.622a16.11 16.11 0 0 0 12.132 8.814l244.575 35.539c13.216 1.92 18.493 18.162 8.93 27.484L724.487 611.114a16.11 16.11 0 0 0-4.634 14.262l41.778 243.586c2.258 13.163-11.558 23.2-23.379 16.986L519.498 770.943a16.112 16.112 0 0 0-14.996 0L285.748 885.949c-11.821 6.215-25.637-3.823-23.379-16.986l41.778-243.586a16.113 16.113 0 0 0-4.634-14.262L122.537 438.606c-9.563-9.322-4.286-25.563 8.93-27.484l244.575-35.539a16.115 16.115 0 0 0 12.132-8.814l109.377-221.622c5.91-11.976 22.988-11.976 28.898-0.001z" p-id="2639"></path></svg>