<?xml version="1.0" standalone="no"?><!DOCTYPE svg PUBLIC "-//W3C//DTD SVG 1.1//EN" "http://www.w3.org/Graphics/SVG/1.1/DTD/svg11.dtd"><svg t="1515650153227" class="icon" style="" viewBox="0 0 1024 1024" version="1.1" xmlns="http://www.w3.org/2000/svg" p-id="4539" xmlns:xlink="http://www.w3.org/1999/xlink" width="200" height="200"><defs><style type="text/css"></style></defs><path d="M677.648 212.222H212v485.05h67.303V279.526h398.345v-67.304zM797.39 625.517h-36.474c-2.116-7.216-5.044-14.143-8.538-20.642l25.823-25.804c5.684-5.707 5.684-14.921 0-20.609l-23.299-23.299c-5.706-5.684-14.902-5.684-20.627 0l-25.804 25.805a107.202 107.202 0 0 0-20.624-8.538v-36.514c0-8.035-6.517-14.551-14.551-14.551h-32.984c-8.03 0-14.551 6.517-14.551 14.551v36.514c-7.198 2.135-14.144 5.044-20.642 8.538l-25.786-25.805c-5.706-5.684-14.921-5.684-20.605 0l-23.303 23.299c-5.684 5.706-5.684 14.902 0 20.609l25.805 25.804c-3.549 6.499-6.402 13.426-8.538 20.642h-36.514c-8.031 0-14.551 6.521-14.551 14.552v32.983c0 8.031 6.52 14.551 14.551 14.551h36.514a107.797 107.797 0 0 0 8.538 20.642l-25.805 25.809c-5.684 5.702-5.684 14.898 0 20.605l23.303 23.299c5.684 5.684 14.899 5.684 20.605 0l25.804-25.804a106.76 106.76 0 0 0 20.624 8.538v36.514c0 8.034 6.521 14.573 14.551 14.573h32.984c8.034 0 14.551-6.54 14.551-14.573V760.69a105.871 105.871 0 0 0 20.624-8.556l25.804 25.822c5.725 5.684 14.921 5.684 20.627 0l23.299-23.299c5.684-5.707 5.684-14.903 0-20.605l-25.823-25.809a104.057 104.057 0 0 0 8.538-20.642h36.532c8.035 0 14.551-6.52 14.551-14.551v-32.983c-0.018-8.03-6.576-14.55-14.609-14.55z m-140.662 93.13c-34.286 0-62.049-27.803-62.049-62.085 0-34.287 27.803-62.067 62.049-62.067 34.32 0 62.104 27.803 62.104 62.067 0.019 34.282-27.784 62.085-62.104 62.085z m-262.223-323.92h331.043v107.315h67.304V327.423H327.201v465.651h135.818v-67.303h-68.513V394.727z" p-id="4540"></path></svg>