<?xml version="1.0" standalone="no"?><!DOCTYPE svg PUBLIC "-//W3C//DTD SVG 1.1//EN" "http://www.w3.org/Graphics/SVG/1.1/DTD/svg11.dtd"><svg class="icon" width="64px" height="64.00px" viewBox="0 0 1024 1024" version="1.1" xmlns="http://www.w3.org/2000/svg"><path d="M902.28 787.892H125.445c-41.365 0-74.769-33.378-74.769-74.769V122.8c0-41.193 33.404-74.77 74.769-74.77h776.993c41.207 0 74.77 33.418 74.77 74.77v590.323c-0.185 41.391-33.562 74.769-74.928 74.769z m44.327-641.355c0-37.794-30.574-68.368-68.368-68.368l-729.255-0.477c-37.742 0-68.342 30.587-68.342 68.368v541.91c0 37.796 30.601 68.395 68.342 68.395l729.255 0.423c37.794 0 68.368-30.547 68.368-68.314V146.537z m-87.543 589.198H168.212c-36.049 0-65.406-31.977-65.406-68.183V165.117c0-36.075 29.198-65.419 65.406-65.419h690.852c36.048 0 65.38 29.199 65.38 65.419v502.436c0 36.047-29.173 68.182-65.38 68.182zM242.188 430.617c-2.803-8.451-8.251-15.618-15.287-20.775-7.353-5.29-16.081-8.106-25.126-8.265-23.724 0-42.951 19.029-42.951 42.594 0 23.592 19.228 42.661 42.951 42.661 23.566 0.105 42.767-19.069 42.926-42.661-0.159-4.655-1.085-9.204-2.513-13.554zM324.15 330.55l-77.123 62.735c6.559 5.806 11.875 12.669 15.922 20.458l77.731-63.37a67.391 67.391 0 0 1-16.53-19.823z m90.691-62.59c-8.119-7.948-18.91-12.483-30.309-12.325-11.373 0-22.137 4.377-30.256 12.325-8.147 7.948-12.643 18.884-12.643 30.137 0 5.607 1.244 10.924 3.122 15.75 6.558 16.24 22.322 26.858 39.778 26.858 7.193 0 13.753-1.878 19.677-5.012 7.829-4.047 14.229-10.434 18.249-18.25 3.147-5.779 5.025-12.338 5.025-19.347-0.16-11.252-4.682-22.188-12.643-30.136z m26.686 68.514c-4.839 7.194-11.082 13.277-18.434 18.276l128.776 127.533c4.999-7.194 11.24-13.276 18.435-18.116L441.527 336.474z m186.036 145.809c-5.766-2.804-12.166-4.39-18.539-4.39-7.035 0-13.753 1.852-19.679 4.999-14.229 7.352-23.115 21.714-23.274 37.636 0 23.405 19.201 42.423 42.953 42.423 23.696 0 42.897-19.018 42.897-42.423-0.157-16.399-9.679-31.236-24.358-38.245z m146.549-153.915L645.84 462.923c7.325 4.655 13.753 10.605 18.883 17.615l128.3-134.688c-7.167-4.536-13.727-10.46-18.911-17.482z m86.009-70.075c-8.092-7.96-18.884-12.483-30.255-12.351-11.4 0-22.165 4.39-30.283 12.351a42.258 42.258 0 0 0-12.644 30.098c0.158 16.397 9.681 31.394 24.491 38.402 13.304 6.414 28.724 5.475 41.206-2.327 12.511-7.802 19.995-21.397 20.127-36.076-0.131-11.371-4.654-22.135-12.642-30.097zM371.757 832.51H645.68l19.969 115.949c0.767 2.062 1.085 4.258 1.085 6.294 0 5.156-2.012 10.131-5.768 13.726-3.596 3.571-8.569 5.607-13.727 5.607H370.514c-5.607 0-11.081-2.484-14.837-6.85-3.729-4.391-5.316-9.999-4.364-15.604l20.444-119.122z" fill="#ffffff" /></svg>