<?xml version="1.0" standalone="no"?><!DOCTYPE svg PUBLIC "-//W3C//DTD SVG 1.1//EN" "http://www.w3.org/Graphics/SVG/1.1/DTD/svg11.dtd"><svg t="1515649433731" class="icon" style="" viewBox="0 0 1024 1024" version="1.1" xmlns="http://www.w3.org/2000/svg" p-id="4323" xmlns:xlink="http://www.w3.org/1999/xlink" width="200" height="200"><defs><style type="text/css"></style></defs><path d="M792 202H232c-16.569 0-30 13.431-30 30v560c0 16.569 13.431 30 30 30h560c16.569 0 30-13.431 30-30V232c0-16.569-13.431-30-30-30z m-21.665 538.335c0 16.569-13.431 30-30 30h-456.67c-16.569 0-30-13.431-30-30l0.001-456.668c0-16.569 13.431-30 30-30h456.668c16.569 0 30 13.431 30 30v456.668zM626.754 589.31a29.842 29.842 0 0 0-3.903-3.278c21.908-28.621 34.934-64.401 34.934-103.229 0-93.888-76.112-170-170-170s-170 76.112-170 170 76.112 170 170 170c33.878 0 65.439-9.913 91.947-26.992a29.796 29.796 0 0 0 4.595 5.925l70.711 70.711c11.667 11.667 30.759 11.667 42.426 0 11.667-11.667 11.667-30.759 0-42.426l-70.71-70.711z m-138.969 3.493c-60.751 0-110-49.249-110-110s49.249-110 110-110 110 49.249 110 110-49.249 110-110 110z" p-id="4324"></path></svg>