<?xml version="1.0" standalone="no"?><!DOCTYPE svg PUBLIC "-//W3C//DTD SVG 1.1//EN" "http://www.w3.org/Graphics/SVG/1.1/DTD/svg11.dtd"><svg class="icon" width="64px" height="64.00px" viewBox="0 0 1024 1024" version="1.1" xmlns="http://www.w3.org/2000/svg"><path d="M729.783607 958.017216" fill="#ffffff" /><path d="M88.04987 958.017216" fill="#ffffff" /><path d="M937.616072 64.12753" fill="#ffffff" /><path d="M662.174789 230.014674c-5.984295 0-11.209296-2.231831-15.664771-6.710842-4.479011-4.477988-8.207939-9.692756-11.189853-15.655562-2.979868-5.961782-5.225001-12.090363-6.710842-18.348903-1.49812-6.27082-2.242064-11.487635-2.242064-15.666818L626.367259 63.540152 628.160091 63.540152c4.774747 0 9.691733 0.594541 14.774495 1.792832 5.071506 1.188058 11.036357 4.02671 17.877159 8.503675 6.887874 4.476965 15.216563 10.738575 25.075095 18.790972 9.844206 8.05342 22.222117 18.647709 37.138852 31.772634 16.116049 14.323217 28.803 26.414603 38.054711 36.249599 9.252735 9.847276 16.394389 18.207687 21.485337 25.060769 5.050016 6.864338 8.18645 12.684904 9.374508 17.45965 1.197268 4.774747 1.790786 8.954953 1.790786 12.530384l0 14.312984L662.174789 230.013651 662.174789 230.014674zM455.402469 734.839251c0 34.006512 6.865361 65.636906 20.595061 94.865601 13.718443 29.243021 32.519648 54.314023 56.394405 75.185376L237.012553 904.890228c-11.341303 0-23.706935-3.278673-37.139875-9.834996-13.433964-6.566556-25.965371-15.22782-37.604456-25.974581-11.628852-10.726296-21.331841-23.113417-29.088502-37.131689-7.745405-14.026458-11.627828-28.493961-11.627828-43.411719L121.551892 179.000813c0-12.531408 2.980891-25.666566 8.954953-39.373753 5.963829-13.729699 13.871939-26.117844 23.708981-37.153178 9.846252-11.044544 21.034059-20.287045 33.576723-27.745924 12.519128-7.459902 25.644053-11.187807 39.374776-11.187807l341.90502 0 0 111.884207c0 11.33107 1.791809 23.564695 5.378497 36.700877 3.574409 13.113669 9.241478 25.205055 17.007349 36.239366 7.756661 11.045567 17.602913 20.298302 29.538757 27.745924 11.93789 7.459902 25.963325 11.18883 42.046628 11.18883l130.686435 0 0 248.831228c-16.115026-9.53926-33.55114-16.854876-52.341089-21.936615-18.802228-5.061272-38.352493-7.604188-58.640562-7.604188-42.950208 0-81.894172 10.584056-116.802216 31.773657-34.918277 21.188578-62.202691 49.375547-81.894172 84.578304L289.82027 622.941741c-15.501042 0-28.780487 5.522784-39.826054 16.558118-11.044544 11.045567-16.556071 24.323988-16.556071 39.83731 0 15.523555 5.511527 28.634154 16.556071 39.385009 11.04659 10.736529 24.325012 16.116049 39.826054 16.116049L455.402469 734.838228 455.402469 734.839251zM289.82027 399.184585c-15.501042 0-28.780487 5.368264-39.826054 16.10684-11.044544 10.746762-16.556071 23.871687-16.556071 39.383986s5.511527 28.792767 16.556071 39.838334c11.04659 11.035334 24.325012 16.544815 39.826054 16.544815l335.655689 0c15.512299 0 28.791743-5.510504 39.836287-16.544815 11.023054-11.044544 16.535605-24.326035 16.535605-39.838334s-5.51255-28.636201-16.535605-39.383986c-11.044544-10.738575-24.323988-16.10684-39.836287-16.10684L289.82027 399.184585 289.82027 399.184585zM890.413004 900.413264c8.337899 10.153244 12.95915 18.646686 13.850449 25.523303 0.903579 6.840802-1.914606 13.872962-8.504698 21.022803-7.140631 8.350179-14.897292 12.235672-23.24747 11.639085-8.358365-0.604774-16.709567-4.180206-25.071002-10.748808l-76.085886-73.380264c-16.095583 10.144034-33.555234 17.448394-52.357462 21.916149-18.800181 4.488221-37.446867 5.985318-55.955406 4.488221-18.491143-1.497097-36.523845-6.116301-54.135968-13.884218-17.600867-7.755638-33.565467-19.09694-47.889707-34.003442-16.095583-16.105816-28.329209-34.622542-36.679387-55.492872-8.361435-20.892843-12.541641-42.069141-12.541641-63.555501 0-21.476127 4.180206-42.510186 12.541641-63.10627 8.350179-20.581758 20.583804-39.21821 36.679387-55.930847 16.116049-16.116049 34.313503-28.348652 54.610782-36.71111 20.287045-8.349155 41.156352-12.520151 62.642712-12.520151 21.487384 0 42.521442 4.170996 63.117526 12.520151 20.581758 8.362458 38.933731 20.595061 55.027268 36.71111 14.32424 14.918781 25.368784 31.320333 33.124422 49.221028 7.755638 17.910928 12.378935 36.250622 13.875009 55.053873 1.496074 18.788925 0 37.44789-4.477988 55.929824-4.476965 18.505469-11.781324 35.799344-21.927405 51.915393L890.413004 900.413264zM679.160649 844.920392c14.919804 0 28.946262-2.981914 42.081421-8.944719 13.123902-5.974062 24.611537-13.871939 34.469046-23.719214 9.822716-9.856485 17.599843-21.48636 23.26589-34.907021 5.656837-13.43294 8.506744-27.898397 8.506744-43.411719 0-14.917758-2.848884-29.077246-8.506744-42.510186-5.666046-13.431917-13.444197-25.214265-23.26589-35.346019-9.857509-10.157337-21.344121-18.056238-34.469046-23.741727-13.135158-5.655813-27.161616-8.495488-42.081421-8.495488-15.510252 0-29.814026 2.838651-42.950208 8.495488-13.122879 5.686513-24.610514 13.58439-34.466999 23.741727-9.845229 10.131755-17.600867 21.914102-23.267936 35.346019-5.677303 13.43294-8.505721 27.592428-8.505721 42.510186 0 15.513322 2.828418 29.978778 8.505721 43.411719 5.66707 13.420661 13.422707 25.050536 23.267936 34.907021 9.856485 9.847276 21.343097 17.745153 34.466999 23.719214C649.347646 841.938478 663.650397 844.920392 679.160649 844.920392L679.160649 844.920392zM679.160649 844.920392" fill="#ffffff" /></svg>